<svg xmlns="http://www.w3.org/2000/svg" version="1.1" width="600px" height="600px" viewBox="0 0 200 200" style="overflow:hidden!important;"><g id="svga-group-wrapper"><g id="svga-group-backs-single"><path id="SvgjsPath12679" d="M0 0h200v200H0V0z" fill="#ecf0f1" stroke-width="none" opacity="1"></path></g><g id="svga-group-humanwrap-move" transform="matrix(1,0,0,1,0,0)"><g id="svga-group-humanwrap"><g id="svga-group-hair-back-move" transform="matrix(1,0,0,1,0,0)"><g id="svga-group-hair-back"></g></g><g id="svga-group-humanbody-back"><path id="SvgjsPath12427" d="M166.5 181.1c-10.9-6.6-27.6-8.4-35-12.1-4.9-2.5-9.1-4.7-8.9-17.8s1.9-42.4 1.9-42.4H75.4s1.6 29.4 1.9 42.4-4.2 15.6-8.9 17.8c-7.4 3.5-24.1 5.4-35 12.1-10.8 6.6-10 18.9-10 18.9v19.7h153.3V200c-.1 0 .7-12.3-10.2-18.9z" fill="#d79468" stroke-width="none" opacity="1"></path></g><g id="svga-group-chinshadow-single"><path id="SvgjsPath12423" d="M93 163.2c2.6 1.6 11.4 1.6 14 .1 4.5-2.5 10.6-9.1 15.6-14 .3-13.8 1.9-40.5 1.9-40.5H75.4s1.4 26.5 1.8 40.3c5.1 4.9 11.2 11.6 15.8 14.1z" fill="#b86934" stroke-width="none" opacity="0.65"></path></g><g id="svga-group-humanbody-front"><path id="SvgjsPath12428" d="M78.7 156.8c.5 4.8 1.7 9.4 3.1 13.9.8 2.3 1.6 4.6 2.6 6.9.8 2 1.7 4.2 3.1 5.9.3.4 1 0 .9-.5-.5-2.2-1.6-4.3-2.4-6.4-.9-2.2-1.7-4.4-2.5-6.6-1.5-4.4-2.8-8.9-4.1-13.3-.2-.4-.8-.3-.7.1zm41.3-1c-1.3 8.2-3.9 16.1-5.4 24.2-.1.4.4.5.6.2 3.1-7.7 4.1-16.1 5.1-24.3-.1-.2-.3-.2-.3-.1zm-25.8 11.9c-.9 3.6 1.9 8.6 6.2 7.6.5-.1.4-.8 0-1-1.4-.5-2.9-.9-3.9-2.1-1.1-1.2-1.5-2.9-1.4-4.5 0-.4-.8-.5-.9 0z" fill="#b86934" stroke-width="none" opacity="1"></path><path id="SvgjsPath12429" d="M177.3 219.7c-.1-6.6-.3-13.1-.3-19.7l-.3-.3c.1 0 .1 0 .2.1s.1.2.1.1v-1.4c0-.5-.1-.9-.1-1.4-.1-.9-.3-1.9-.5-2.8-.5-1.8-1.1-3.6-2-5.3-1.7-3.4-4.4-6.2-7.7-8.1-3.6-2.2-7.6-3.8-11.6-5.1-4-1.3-8.1-2.4-12.1-3.5-4-1.2-8.1-2.2-11.8-4.2-1.9-1-3.6-2.1-4.8-3.6-1.2-1.6-1.9-3.5-2.3-5.5-.8-4-.4-8.2-.3-12.4l.7-12.6 1.5-25.2.1-1.4h-1.4c-8.2 0-16.4 0-24.6.1l-24.6.3h-.9l.1.9c.8 11.9 1.6 23.8 2.1 35.7.1 3 .3 6 .2 8.9-.1 2.9-.4 5.9-1.6 8.6-.6 1.3-1.4 2.5-2.4 3.5s-2.3 1.8-3.6 2.4c-2.6 1.3-5.4 2.2-8.3 3-5.8 1.5-11.6 2.8-17.3 4.7-2.8.9-5.7 2-8.4 3.4-1.3.7-2.7 1.4-4 2.4-1.3.9-2.4 1.9-3.5 3.1-2.1 2.3-3.6 5.2-4.5 8.1-.5 1.5-.8 3-1 4.6-.1.8-.1 1.6-.1 2.4v2.3l-.2 17.9v1.3h1.4l38.3.2c12.8.1 25.5.1 38.3 0 12.8-.1 25.6-.1 38.3-.3 12.8-.2 25.6-.5 38.3-.7h.6v-.5zm-77.2-1.6H61.8l-37 .2-.1-16.6v-2.2c0-.7 0-1.4.1-2.1.1-1.4.4-2.8.8-4.2.8-2.7 2.1-5.3 3.9-7.5.9-1.1 2-2.1 3.1-2.9 1.1-.9 2.4-1.6 3.7-2.3 2.6-1.4 5.3-2.5 8.1-3.5 5.6-2 11.4-3.4 17.1-5.1 2.9-.8 5.8-1.7 8.5-3.1 1.3-.7 2.7-1.5 3.8-2.6 1.1-1.1 2-2.4 2.6-3.9 1.2-2.9 1.5-5.9 1.6-8.9 0-3-.1-6-.2-9l-1.3-34.8 23.5.4c7.7.1 15.4.1 23.1.1-.4 7.9-.8 15.9-1.1 23.8-.2 4.2-.2 8.4-.3 12.6 0 4.2-.2 8.5.8 12.8.5 2.1 1.3 4.2 2.8 6 1.4 1.7 3.4 2.9 5.3 3.8 3.9 1.9 8 2.8 12.1 3.8s8.2 2 12.2 3.3c4 1.3 7.9 2.8 11.5 5 3.2 1.9 5.8 4.7 7.5 8 .9 1.6 1.5 3.4 1.9 5.2.2.9.4 1.8.4 2.7.1.5.1.9.1 1.4V200l-.3 19c-12.6-.2-25.1-.5-37.7-.7-12.7-.1-25.5-.1-38.2-.2z" fill="#a9561f" stroke-width="none" opacity="1"></path></g><g id="svga-group-clothes-single"><path id="SvgjsPath12579" d="M179.3 220.1c0-17.5-1.6-26.7-1.6-26.7-3-14-21.9-18.2-30.7-20.1-15.2-3-20.1-7.2-20.1-7.2s-6.4 16-27.5 16-26.8-16.6-26.8-16.6-5.3 4.1-21.2 7.1c-8.7 1.9-26.3 6.9-29.3 20.9 0 0-1.6 9.2-1.6 26.7h158.8z" fill="#386e77" stroke-width="none" opacity="1"></path><path id="SvgjsPath12580" d="M179.6 209.2c-.1-3.6-.2-7.3-.5-10.9l-.3-2.7c-.1-.9-.2-1.8-.4-2.8-.4-1.9-1.1-3.6-2.1-5.3-1.9-3.3-4.9-5.9-8-7.9-3.2-2-6.6-3.5-10.1-4.7-3.5-1.2-7.1-2.1-10.6-2.9-3.5-.7-7-1.6-10.4-2.7-1.7-.6-3.3-1.2-4.9-1.9-.8-.4-1.6-.7-2.4-1.1-.4-.2-.8-.4-1.1-.6-.3-.2-.7-.5-1-.6-.1-.1-.2-.1-.3-.2-.7-.3-1.5 0-1.8.7-.5 1.1-1.2 2.3-1.9 3.4-.8 1.1-1.6 2.1-2.5 3.1-1.8 1.9-3.9 3.6-6.2 5-4.6 2.7-10.1 4-15.5 4.1-5.4.1-11-1-15.7-3.8-4.7-2.8-8.6-7.1-10.7-12.1 0 0 0-.1-.1-.1-.2-.2-.5-.3-.7-.1-1.4 1-3.1 1.8-4.7 2.4-1.7.7-3.4 1.3-5.1 1.8-3.5 1.1-7 1.9-10.5 2.6-7.1 1.5-14.3 3.5-20.6 7.6-3.1 2-6 4.6-7.9 7.9-1 1.6-1.7 3.4-2.2 5.3-.1.2-.1.5-.2.7l-.1.7-.2 1.4-.3 2.7c-.8 7.3-1.1 14.6-1.2 21.9 0 .7.6 1.4 1.3 1.4l40 .2c13.3 0 26.7-.1 39.9-.2l39.8-.3 36.9-.6 2.2-.4c.1-3.8.1-7.3.1-11zm-20.5 10.4-20-.3-39.7-.5c-13.2-.1-26.3-.2-39.4-.2l-38 .2c0-6.8.1-13.6.7-20.3l.3-2.7.1-1.3.1-.7c0-.2.1-.4.1-.6.4-1.6 1-3.3 1.8-4.8 1.7-3 4.2-5.6 7.1-7.6 2.9-2 6.2-3.6 9.5-4.9s6.8-2.3 10.4-3c3.6-.7 7.1-1.6 10.6-2.7 1.7-.6 3.5-1.2 5.2-1.9 1.5-.6 3-1.3 4.5-2.2 1.1 2.5 2.5 4.7 4.2 6.8 1.8 2.2 4 4.1 6.5 5.6 4.9 3.1 10.7 4.4 16.4 4.5 5.7.1 11.6-1 16.7-3.8 2.6-1.4 4.9-3.2 6.9-5.3 1.7-1.8 3.1-3.6 4.3-5.8.4.2.8.5 1.2.7.8.4 1.7.9 2.5 1.2 1.7.8 3.4 1.4 5.2 2 3.5 1.1 7.1 2 10.7 2.7 7 1.4 14 3.3 20.1 6.9 3 1.8 5.7 4.1 7.6 7 .9 1.4 1.6 3.1 2.1 4.7.2.8.3 1.7.4 2.6l.3 2.7c.4 3.6.8 7.2 1 10.8.2 3.6.4 7.3.6 10.8l-20-.6zM38.3 188.5c1.4 3.2 2.4 6.5 3.2 9.9.4 1.7.8 3.4 1.1 5.1.3 1.7.6 3.4.9 5.2.5 3.2 1 6.4 1.4 9.6h.2c.2-3.2.2-6.5 0-9.8-.3-3.5-.8-7.1-1.6-10.6-.4-1.7-.9-3.5-1.5-5.2-.6-1.7-1.3-3.4-2.2-4.9-.8-1.6-1.8-3.1-3-4.5-1-1.1-2-2.2-3.2-3.1-.1 0-.1.1-.2.1 1 1.1 1.8 2.3 2.6 3.5.8 1.5 1.6 3.1 2.3 4.7zm118.3 20.1c.3-1.7.6-3.5.9-5.2.3-1.7.6-3.4 1.1-5.1.8-3.4 1.8-6.7 3.2-9.9.7-1.6 1.5-3.1 2.4-4.6.7-1.1 1.5-2.3 2.4-3.3-.1-.1-.2-.1-.2-.2-1.1.8-2.1 1.8-3 2.9-1.1 1.4-2.1 2.9-3 4.5-.9 1.6-1.6 3.2-2.2 4.9-.6 1.7-1.1 3.4-1.5 5.2-.8 3.5-1.3 7-1.6 10.6-.2 3.5-.3 7.1 0 10.6.5-3.5 1-6.9 1.5-10.4zM116 183.8c-5.2 2.9-11.3 3.9-17.3 3.5-1.5-.1-3-.2-4.5-.4s-2.9-.5-4.4-.9c-1.4-.4-2.8-.9-4.2-1.5-1.3-.6-2.7-1.3-3.9-2.1-2.5-1.6-4.8-3.6-6.7-5.8-2-2.2-3.7-4.7-5-7.3 2 5.6 5.8 10.7 10.9 14.3 2.5 1.8 5.4 3.2 8.4 4.1 1.5.4 3.1.8 4.6 1 1.6.2 3.1.4 4.7.4 3.1.1 6.3 0 9.4-.7 3.1-.7 6.1-1.8 8.8-3.4 2.7-1.6 5.1-3.6 7.2-5.8 2.1-2.2 4-4.6 5.6-7.1-4 4.5-8.3 8.8-13.6 11.7z" fill="#184f58" stroke-width="none" opacity="1"></path></g><g id="svga-group-head" transform="matrix(1,0,0,1,0,0)"><g id="svga-group-ears-left-move" transform="matrix(1,0,0,1,0,0)"><g id="svga-group-ears-left"><path id="SvgjsPath12444" d="M63 101.3s-1.7-4.6-3.4-7.5-4.3-6.9-5.9-7.9-2.7-.4-2.3 2.3 2.5 11.4 3 14c.6 2.6 1.9 8.4 3.4 12.2 1.5 3.8 2.5 5.5 4 .5s2.4-10.4 1.2-13.6z" fill="#d79468" stroke-width="none" opacity="1"></path><path id="SvgjsPath12445" d="M67.1 106c0 1.6-.8 7.1-2.2 10.6-1.3 1.2-4.7 2.2-4.8 2.1-.1 0-.2 0-.4-.1-.4-.2-.7-.6-.9-1s-.4-.7-.6-1.1c-.3-.7-.6-1.4-.9-2.2-.6-1.5-1-3-1.5-4.6-.9-3.1-1.5-6.2-2-9.4-.6-3.1-1.2-6.2-1.9-9.3l-.5-2.3c-.2-.8-.4-1.6-.3-2.5.1-.5.3-.9.6-1.1s.6-.3 1-.2c.6.1 6.8.8 7.3 1.3 3.4 1.3 7.2 8.5 7.1 19.8zm-8.2-12.6c-.8-1.2-1.6-2.3-2.4-3.5-.8-1.1-1.6-2.3-2.5-3.1-.4-.4-.9-.7-1.4-.8-.5-.1-.9.1-1 .6-.1.6 0 1.4.1 2.2.1.8.3 1.6.4 2.3.6 3.1 1.4 6.2 2.1 9.3.7 3.1 1.5 6.1 2.4 9.1.4 1.5.9 3 1.5 4.3.3.7.6 1.4.9 2 .2.3.3.6.5.9.2.2.3.4.4.5.1 0 .1 0 .3-.1.1-.1.1-.2.2-.3.1-.1.1-.2.2-.4.3-.6.5-1.2.7-1.9.4-1.4.9-2.7 1.2-4.2.4-1.4.7-2.9.8-4.4s.1-3.2-.4-4.6c-1-2.9-2.4-5.6-4-7.9z" fill="#c87d4d" stroke-width="none" opacity="1"></path><path id="SvgjsPath12446" d="M52.1 88.9c3.2 3.5 5.8 9.5 6.2 15.1 0 .4-.3.4-.4.1l-.3-1.5c-.3-.7-.8-.8-1.4-.2.1.4.1.9.2 1.3.1.6.3 1.1.5 1.7.5 1.3 1.2 2.3 1.8 3.5.1.2 0 .6-.2.5-1.5-1.3-3.1-4.8-3-7.3 0-.8.3-1.4.8-1.5.3 0 .6.1.8.4-1.1-4.4-2.7-8-5.2-11.6-.1-.4.1-.7.2-.5z" fill="#b86934" stroke-width="none" opacity="1"></path></g></g><g id="svga-group-ears-right-move" transform="matrix(1,0,0,1,0,0)"><g id="svga-group-ears-right"><path id="SvgjsPath12447" d="M137 101.3s1.7-4.6 3.4-7.5 4.3-6.9 5.9-7.9c1.6-1 2.7-.4 2.3 2.3-.5 2.7-2.5 11.4-3 14-.6 2.6-1.9 8.4-3.4 12.2-1.5 3.8-2.5 5.5-4 .5s-2.4-10.4-1.2-13.6z" fill="#d79468" stroke-width="none" opacity="1"></path><path id="SvgjsPath12448" d="M140.1 86.2c.5-.5 6.7-1.2 7.3-1.3.3 0 .7 0 1 .2s.5.7.6 1.1c.1.9-.1 1.8-.3 2.5l-.5 2.3c-.7 3.1-1.3 6.2-1.9 9.3-.6 3.1-1.2 6.3-2 9.4-.4 1.5-.9 3.1-1.5 4.6-.3.7-.6 1.4-.9 2.2-.2.4-.4.7-.6 1.1-.2.3-.5.7-.9 1-.1 0-.2.1-.4.1-.1 0-3.5-1-4.8-2.1-1.4-3.5-2.2-9-2.2-10.6-.2-11.3 3.6-18.5 7.1-19.8zm-3.1 15.1c-.5 1.5-.6 3.1-.4 4.6.1 1.5.4 3 .8 4.4l1.2 4.2c.2.7.4 1.3.7 1.9.1.2.1.3.2.4.1.1.1.2.2.3.1.1.2.2.3.1s.3-.2.4-.5c.2-.3.3-.6.5-.9.3-.6.6-1.4.9-2 .6-1.4 1-2.8 1.5-4.3.9-3 1.6-6 2.4-9.1.8-3.1 1.5-6.2 2.1-9.3.2-.8.3-1.6.4-2.3.1-.8.2-1.6.1-2.2-.1-.6-.5-.8-1-.6-.5.1-1 .4-1.4.8-.9.8-1.7 2-2.5 3.1s-1.6 2.3-2.4 3.5c-1.5 2.3-2.9 5-4 7.9z" fill="#c87d4d" stroke-width="none" opacity="1"></path><path id="SvgjsPath12449" d="M147.9 88.9c-3.2 3.5-5.8 9.5-6.2 15.1 0 .4.3.4.4.1l.3-1.5c.3-.7.8-.8 1.4-.2-.1.4-.1.9-.2 1.3-.1.6-.3 1.1-.5 1.7-.5 1.3-1.2 2.3-1.8 3.5-.1.2 0 .6.2.5 1.5-1.3 3.1-4.8 3-7.3 0-.8-.3-1.4-.8-1.5-.3 0-.6.1-.8.4 1.1-4.4 2.7-8 5.2-11.6.1-.4-.1-.7-.2-.5z" fill="#b86934" stroke-width="none" opacity="1"></path></g></g><g id="svga-group-faceshape-wrap"><g id="svga-group-faceshape-single"><path id="SvgjsPath12409" d="M143.2 82.9v-.3c-1.3-30.5-20.7-47.3-43.2-47.3S58.1 52.1 56.9 82.6v.3c0 2.4-.5 15.6 3.1 26.5 3.2 9.8 5.7 17.5 13.5 24.1 5.5 4.6 13.8 14.7 19.6 17.9 2.6 1.4 11.4 1.4 14 0 5.8-3.3 14.1-13.4 19.6-17.9 7.8-6.5 10.4-14.3 13.5-24.1 3.4-10.9 2.9-24.2 3-26.5z" fill="#d79468" stroke-width="none" opacity="1"></path><path id="SvgjsPath12410" d="M73.5 133.4c5.5 4.6 13.8 14.7 19.6 17.9 2.6 1.4 11.4 1.4 14 0 5.8-3.3 14.1-13.4 19.6-17.9 7.8-6.5 10.4-14.3 13.5-24.1 3.4-10.9 2.9-24.2 3-26.5v-.3C141.9 52 122.5 35.2 100 35.2S58.1 52.1 56.9 82.6v.3c0 2.4-.5 15.6 3.1 26.5 3.2 9.8 5.7 17.5 13.5 24zM58 89.6c-.2-3.3-.3-6.7 0-10 .4-6.6 1.9-13.2 4.7-19.2 2.8-5.9 6.9-11.2 12.1-15.1C80 41.5 86 39.1 92.2 38c6.2-1 12.6-.7 18.6.9 6.1 1.5 11.7 4.6 16.6 8.7l.9.8c.3.3.6.6.9.8l1.7 1.7c.6.5 1 1.2 1.6 1.8l1.5 1.9c.9 1.4 1.8 2.8 2.6 4.2l1.1 2.2c.4.7.8 1.4 1 2.2 2.6 6.1 3.9 12.7 4.2 19.5-.1 3.4-.1 6.7-.4 10.1-.3 3.4-.7 6.6-1.5 9.9-.4 1.6-.8 3.3-1.3 4.8s-1.1 3.2-1.7 4.7c-1.2 3.2-2.5 6.2-4 9-1.6 2.8-3.4 5.4-5.6 7.5-.5.6-1.1 1-1.7 1.6l-1.9 1.5c-1.4 1.1-2.6 2.2-3.8 3.5-2.5 2.3-4.8 4.7-7.1 6.9s-4.8 4.5-7.2 6.1c-.3.2-1.8 1.3-8 1.1-.8 0-1.5-.1-2.2-.2-.7-.1-3-1.2-3.3-1.4-.6-.4-1.2-.9-1.8-1.3-2.4-1.9-4.8-4.3-7.1-6.6-2.4-2.3-4.7-4.7-7.3-7-.6-.6-1.3-1.1-2-1.7-.6-.5-1.2-1-1.7-1.5-1.1-1-2.2-2.2-3.1-3.5-1.9-2.4-3.4-5.3-4.7-8.2-1.3-3-2.4-6.1-3.6-9.3-1.1-3.1-1.9-6.2-2.5-9.5-.8-3-1.2-6.2-1.4-9.6z" fill="#a9561f" stroke-width="none" opacity="1"></path></g></g><g id="svga-group-mouth-single-move" transform="matrix(1,0,0,1,0,0)"><g id="svga-group-mouth-single"><path id="SvgjsPath12613" d="M85.34 126.92s2.37-.51 5.3-1.54c2.87-1.01 6.09-2.05 8.83-2.14 3.98-.13 6.69.33 9.92 1.61 4.77 1.89 7.89 2.17 7.89 2.17s-2.81 2.71-10.17 4.41c-7.36 1.7-14.09.36-17.26-1.47-3.17-1.83-4.51-3.04-4.51-3.04z" fill="#9b565f" stroke-width="none" opacity="1" transform="translate(0 2)"></path><path id="SvgjsPath12614" d="M118.94 126.28c-.72.2-2.15 1.09-8.57.73-2.91-.16-5.81-.6-8.73-.65-2.85-.05-5.66.33-8.49.57-6.77.58-8.72-.58-9.3-.72-.16-.04-.27.19-.11.27 5.39 2.95 12.12.73 17.9.89 5.62.16 12.32 2.08 17.53-.92.27-.16.09-.26-.23-.17z" fill="#8c4049" stroke-width="none" opacity="1" transform="translate(0 2)"></path></g></g><g id="svga-group-eyes-left-move" transform="matrix(1,0,0,1,0,0)"><g id="svga-group-eyes-left"><g id="svga-group-eyesback-left"><path id="SvgjsPath12484" d="M89.5 94.7s-.9-1.9-2.9-3.3c-2-1.3-4.8-2.7-9-1.7-4.2 1-6.6 3.3-8.1 5.3 0 0 .4.5 1.4 1.1 1 .6 4.7 2.7 8.8 2.5 4.1-.2 7.8-2.5 8.5-2.9.7-.3 1.3-1 1.3-1z" fill="#ffffff" stroke-width="none" opacity="1"></path></g><g id="svga-group-eyesiriswrapper-left" transform="matrix(1,0,0,1,0,0)"><g id="svga-group-eyesiriscontrol-left" transform="matrix(1,0,0,1,0,0)"><g id="svga-group-eyesiris-left"><path id="SvgjsPath12528" d="M80.1 88.3c2.9 0 5.2 2.3 5.2 5.2s-2.3 5.2-5.2 5.2-5.2-2.3-5.2-5.2 2.3-5.2 5.2-5.2z" fill="#681711" stroke-width="none" opacity="1"></path><path id="SvgjsPath12529" d="M80.1 88.6c2.7 0 4.9 2.2 4.9 4.9s-2.2 4.9-4.9 4.9-4.9-2.2-4.9-4.9 2.1-4.9 4.9-4.9m0-.5c-3 0-5.5 2.4-5.5 5.5 0 3 2.4 5.5 5.5 5.5 3 0 5.5-2.4 5.5-5.5s-2.5-5.5-5.5-5.5z" fill="#490500" stroke-width="none" opacity="1"></path><path id="SvgjsPath12530" d="M82.7 89c-.1.3-.3.7-.5 1-.2.3-.4.6-.7.9.1-.3.3-.7.5-1 .2-.4.4-.7.7-.9zm.7.6-.6.9c-.2.3-.5.6-.8.8l.6-.9c.3-.3.5-.6.8-.8zm-.9 2c.2-.3.4-.5.6-.7.2-.2.5-.4.8-.5-.2.3-.4.5-.6.7-.2.2-.5.4-.8.5zm.3.6c.3-.2.6-.3.9-.4.3-.1.6-.2 1-.3-.3.2-.6.3-.9.4-.4.2-.7.3-1 .3zm.3.5c.3-.1.6-.2.9-.2s.6-.1.9-.1c-.3.1-.6.2-.9.2-.3.1-.6.2-.9.1zm.1.7c.2 0 .3-.1.5-.1h.5c.3 0 .6.1.9.2-.3.1-.6 0-.9 0-.2 0-.3 0-.4-.1-.3.1-.5.1-.6 0zm-.2.6c.3 0 .6.1.9.1l.9.3c-.3 0-.6-.1-.9-.1-.3 0-.6-.1-.9-.3zm0 .7c.2 0 .3.1.4.1.1.1.3.1.4.2.3.1.5.3.7.5-.3-.1-.6-.2-.8-.3-.1-.1-.3-.1-.4-.2 0-.1-.2-.2-.3-.3zm-.5.8c.3.1.5.2.7.4.2.2.4.3.6.6-.3-.1-.5-.2-.7-.4l-.6-.6zm-.9-6.8c0 .3-.1.7-.2 1-.1.3-.2.6-.4.9 0-.3.1-.7.2-1 .1-.3.2-.7.4-.9zm-1.3 1.7c-.1-.3 0-.7 0-1 0-.3.1-.7.2-1 .1.3 0 .7 0 1s-.1.7-.2 1zm-1.1-2c.1.3.2.7.3 1 .1.3.1.7.1 1-.1-.3-.2-.6-.3-1 0-.2-.1-.3-.1-.5v-.5zm-1.1.4c.2.3.3.6.4.9.1.3.2.7.3 1-.2-.3-.3-.6-.4-.9-.2-.3-.3-.7-.3-1zm-.9.5c.2.2.5.5.7.8s.4.6.5.9c-.2-.2-.5-.5-.7-.8-.2-.3-.4-.5-.5-.9zm-1 .9c.3.2.7.4.9.7.3.2.6.5.8.8-.3-.2-.7-.4-.9-.7-.3-.3-.6-.5-.8-.8zm-.3 1c.3.1.5.2.8.3.2.1.5.3.7.5-.3-.1-.5-.2-.8-.3-.3-.1-.5-.3-.7-.5zm-.5 1c.3 0 .5 0 .8.1s.5.1.7.3c-.3 0-.5 0-.8-.1s-.4-.1-.7-.3zm-.2 1.2c.3-.1.6-.1.8-.1s.6 0 .8.1c-.3.1-.6.1-.8.1-.2 0-.5-.1-.8-.1zm.1.9c.2-.1.5-.2.8-.2.3-.1.5-.1.8-.1-.2.1-.5.2-.8.2-.2.1-.5.1-.8.1zm.1.9c.3-.2.6-.3.9-.3s.6-.2.9-.2c-.3.2-.6.3-.9.3-.3.1-.6.2-.9.2zm.5.9c.2-.2.5-.3.8-.5.3-.1.5-.2.8-.3-.2.2-.5.3-.8.5-.2.1-.5.2-.8.3zm.8.9c.1-.2.3-.4.5-.6.2-.2.4-.4.6-.5-.1.2-.3.4-.5.6-.2.2-.4.4-.6.5zm.9.8c.1-.3.2-.7.4-.9.2-.3.3-.6.6-.9-.1.3-.2.7-.4.9-.2.4-.4.7-.6.9zm1.1.4c0-.3 0-.5.1-.8.1-.3.2-.5.3-.8 0 .3 0 .5-.1.8 0 .3-.1.5-.3.8zm2.7-1.8c.2.2.2.5.3.7.1.3.2.5.2.8-.2-.2-.2-.5-.3-.7-.1-.2-.2-.5-.2-.8zm.7-.3c.2.2.4.4.5.6.2.2.3.4.4.7-.2-.2-.4-.4-.5-.6-.2-.2-.3-.4-.4-.7zm-1.5.6c.1.2.1.5.2.8v.8c-.1-.2-.1-.5-.2-.8v-.8zm-.7.1c.1.2.1.5.1.7 0 .3 0 .5-.1.8-.1-.3-.1-.5-.1-.8 0-.2.1-.5.1-.7z" fill="#3a0400" stroke-width="none" opacity="1"></path><path id="SvgjsPath12531" d="M80.1 90.6c1.6 0 2.9 1.3 2.9 2.9s-1.3 2.9-2.9 2.9-2.9-1.3-2.9-2.9 1.2-2.9 2.9-2.9z" fill="#000000" stroke-width="none" opacity="1"></path><path id="SvgjsPath12532" d="m79.3 91.1-.6-.6c-.2-.2-.5-.3-.7-.3-.2 0-.6.1-.7.3-.2.2-.3.5-.3.8 0 .3.1.5.3.7l.6.6c.2.2.5.3.7.3.2 0 .6-.1.7-.3.4-.4.4-1.1 0-1.5zm2.8 5c.9 0 .9-1.5 0-1.5s-1 1.5 0 1.5z" fill="#ffffff" stroke-width="none" opacity="1"></path></g></g></g><g id="svga-group-eyesfront-left"><path id="SvgjsPath12492" d="M69.4 94.6c0 6.4 4.7 11.5 10.6 11.5s10.6-5.2 10.6-11.5S85.9 83.1 80 83.1s-10.6 5.1-10.6 11.5zm.1.5c1.5-1.9 4-4.3 8.1-5.3s7 .4 9 1.7c2 1.3 2.9 3.3 2.9 3.3s-.6.6-1.3 1.1c-.7.4-4.4 2.7-8.5 2.9-4.1.2-7.8-1.9-8.8-2.5-.9-.7-1.4-1.2-1.4-1.2z" fill="#d79468" stroke-width="none" opacity="1"></path><path id="SvgjsPath12493" d="M89 91.7c-4.4-3.6-9.7-4.3-15-2.6-.2.1-.3-.2-.1-.3 5-2.2 11.3-.9 15.2 2.8.1 0 0 .1-.1.1z" fill="#c87d4d" stroke-width="none" opacity="1"></path><path id="SvgjsPath12494" d="M68.9 96c.2-.2.5-.4.7-.6 5.1 5.2 15 4.5 20-.4 0 0 0 .1.1.1.1.2.4 0 .3-.2 0-.1-.1-.1-.1-.2.1-.1 0-.3-.2-.3-2.1-3.6-6.3-5.4-10.4-5.2-3.9.2-9.2 2.8-10.7 6.6-.2.3.1.4.3.2zm.9-.8c1.2-1.1 2.2-2.4 3.7-3.3 1.6-1 3.3-1.7 5.2-2 4.2-.7 8.4 1.3 10.6 4.8-2.8 2.1-5.9 3.6-9.5 3.7-3.9.1-6.7-1.3-10-3.2z" fill="#000000" stroke-width="none" opacity="1"></path></g></g></g><g id="svga-group-eyes-right-move" transform="matrix(1,0,0,1,0,0)"><g id="svga-group-eyes-right"><g id="svga-group-eyesback-right"><path id="SvgjsPath12485" d="M110.5 94.7s.9-1.9 2.9-3.3c2-1.3 4.8-2.7 9-1.7 4.2 1 6.6 3.3 8.1 5.3 0 0-.4.5-1.4 1.1-1 .6-4.7 2.7-8.8 2.5-4.1-.2-7.8-2.5-8.5-2.9-.7-.3-1.3-1-1.3-1z" fill="#ffffff" stroke-width="none" opacity="1"></path></g><g id="svga-group-eyesiriswrapper-right" transform="matrix(1,0,0,1,0,0)"><g id="svga-group-eyesiriscontrol-right" transform="matrix(1,0,0,1,0,0)"><g id="svga-group-eyesiris-right"><path id="SvgjsPath12533" d="M119.9 88.3c2.9 0 5.2 2.3 5.2 5.2s-2.3 5.2-5.2 5.2-5.2-2.3-5.2-5.2 2.4-5.2 5.2-5.2z" fill="#681711" stroke-width="none" opacity="1"></path><path id="SvgjsPath12534" d="M119.9 88.6c2.7 0 4.9 2.2 4.9 4.9s-2.2 4.9-4.9 4.9-4.9-2.2-4.9-4.9 2.2-4.9 4.9-4.9m0-.5c-3 0-5.5 2.4-5.5 5.5 0 3 2.4 5.5 5.5 5.5 3 0 5.5-2.4 5.5-5.5s-2.4-5.5-5.5-5.5z" fill="#490500" stroke-width="none" opacity="1"></path><path id="SvgjsPath12535" d="M122.6 89c-.1.3-.3.7-.5 1-.2.3-.4.6-.7.9.1-.3.3-.7.5-1 .2-.4.4-.7.7-.9zm.7.6-.6.9c-.2.3-.5.6-.8.8l.6-.9c.3-.3.5-.6.8-.8zm-.9 2c.2-.3.4-.5.6-.7.2-.2.5-.4.8-.5-.2.3-.4.5-.6.7-.3.2-.5.4-.8.5zm.3.6c.3-.2.6-.3.9-.4.3-.1.6-.2 1-.3-.3.2-.6.3-.9.4-.4.2-.7.3-1 .3zm.3.5c.3-.1.6-.2.9-.2s.6-.1.9-.1c-.3.1-.6.2-.9.2-.3.1-.6.2-.9.1zm.1.7c.2 0 .3-.1.5-.1h.5c.3 0 .6.1.9.2-.3.1-.6 0-.9 0-.2 0-.3 0-.4-.1-.3.1-.5.1-.6 0zm-.2.6c.3 0 .6.1.9.1l.9.3c-.3 0-.6-.1-.9-.1-.3 0-.6-.1-.9-.3zm0 .7c.2 0 .3.1.4.1.1.1.3.1.4.2.3.1.5.3.7.5-.3-.1-.6-.2-.8-.3-.1-.1-.3-.1-.4-.2 0-.1-.2-.2-.3-.3zm-.5.8c.3.1.5.2.7.4.2.2.4.3.6.6-.3-.1-.5-.2-.7-.4l-.6-.6zm-.9-6.8c0 .3-.1.7-.2 1-.1.3-.2.6-.4.9 0-.3.1-.7.2-1 .1-.3.2-.7.4-.9zm-1.3 1.7c-.1-.3 0-.7 0-1 0-.3.1-.7.2-1 .1.3 0 .7 0 1s-.1.7-.2 1zm-1.1-2c.1.3.2.7.3 1 .1.3.1.7.1 1-.1-.3-.2-.6-.3-1 0-.2-.1-.3-.1-.5v-.5zm-1.1.4c.2.3.3.6.4.9.1.3.2.7.3 1-.2-.3-.3-.6-.4-.9-.2-.3-.3-.7-.3-1zm-.9.5c.2.2.5.5.7.8s.4.6.5.9c-.2-.2-.5-.5-.7-.8-.2-.3-.4-.5-.5-.9zm-1 .9c.3.2.7.4.9.7.3.2.6.5.8.8-.3-.2-.7-.4-.9-.7-.3-.3-.6-.5-.8-.8zm-.3 1c.3.1.5.2.8.3.2.1.5.3.7.5-.3-.1-.5-.2-.8-.3-.3-.1-.5-.3-.7-.5zm-.5 1c.3 0 .5 0 .8.1s.5.1.7.3c-.3 0-.5 0-.8-.1s-.4-.1-.7-.3zm-.2 1.2c.3-.1.6-.1.8-.1s.6 0 .8.1c-.3.1-.6.1-.8.1-.2 0-.5-.1-.8-.1zm.1.9c.2-.1.5-.2.8-.2.3-.1.5-.1.8-.1-.2.1-.5.2-.8.2-.2.1-.5.1-.8.1zm.1.9c.3-.2.6-.3.9-.3s.6-.2.9-.2c-.3.2-.6.3-.9.3-.3.1-.6.2-.9.2zm.5.9c.2-.2.5-.3.8-.5.3-.1.5-.2.8-.3-.2.2-.5.3-.8.5-.3.1-.5.2-.8.3zm.8.9c.1-.2.3-.4.5-.6.2-.2.4-.4.6-.5-.1.2-.3.4-.5.6-.2.2-.4.4-.6.5zm.9.8c.1-.3.2-.7.4-.9.2-.3.3-.6.6-.9-.1.3-.2.7-.4.9-.2.4-.4.7-.6.9zm1.1.4c0-.3 0-.5.1-.8.1-.3.2-.5.3-.8 0 .3 0 .5-.1.8-.1.3-.1.5-.3.8zm2.7-1.8c.2.2.2.5.3.7.1.3.2.5.2.8-.2-.2-.2-.5-.3-.7-.1-.2-.2-.5-.2-.8zm.7-.3c.2.2.4.4.5.6.2.2.3.4.4.7-.2-.2-.4-.4-.5-.6-.2-.2-.3-.4-.4-.7zm-1.5.6c.1.2.1.5.2.8v.8c-.1-.2-.1-.5-.2-.8v-.8zm-.7.1c.1.3.1.5.1.8 0 .3 0 .5-.1.8-.1-.3-.1-.5-.1-.8 0-.3.1-.6.1-.8z" fill="#3a0400" stroke-width="none" opacity="1"></path><path id="SvgjsPath12536" d="M119.9 90.6c1.6 0 2.9 1.3 2.9 2.9s-1.3 2.9-2.9 2.9-2.9-1.3-2.9-2.9 1.3-2.9 2.9-2.9z" fill="#000000" stroke-width="none" opacity="1"></path><path id="SvgjsPath12537" d="m119.2 91.1-.6-.6c-.2-.2-.5-.3-.7-.3-.2 0-.6.1-.7.3-.2.2-.3.5-.3.7 0 .3.1.5.3.7l.6.6c.2.2.5.3.7.3.2 0 .6-.1.7-.3.4-.3.4-1 0-1.4zm2.7 5c.9 0 .9-1.5 0-1.5s-.9 1.5 0 1.5z" fill="#ffffff" stroke-width="none" opacity="1"></path></g></g></g><g id="svga-group-eyesfront-right"><path id="SvgjsPath12495" d="M120 83.1c-5.9 0-10.6 5.2-10.6 11.5s4.7 11.5 10.6 11.5 10.6-5.2 10.6-11.5-4.8-11.5-10.6-11.5zm9.1 13.1c-1 .6-4.7 2.7-8.8 2.5-4.1-.2-7.8-2.5-8.5-2.9-.7-.4-1.3-1.1-1.3-1.1s.9-1.9 2.9-3.3c2-1.3 4.8-2.7 9-1.7s6.6 3.3 8.1 5.3c0 .1-.5.6-1.4 1.2z" fill="#d79468" stroke-width="none" opacity="1"></path><path id="SvgjsPath12498" d="M111 91.7c4.4-3.6 9.7-4.3 15-2.6.2.1.3-.2.1-.3-5-2.2-11.3-.9-15.2 2.8-.1 0 0 .1.1.1z" fill="#c87d4d" stroke-width="none" opacity="1"></path><path id="SvgjsPath12499" d="M131.5 95.8c-1.5-3.8-6.8-6.4-10.7-6.6-4.1-.2-8.3 1.6-10.4 5.2-.1 0-.3.2-.2.3 0 .1-.1.1-.1.2-.1.2.2.4.3.2 0 0 0-.1.1-.1 5 5 14.9 5.7 20 .4.2.2.4.4.7.6.1.2.4.1.3-.2zm-11.3 2.6c-3.6-.1-6.7-1.7-9.5-3.7 2.2-3.6 6.4-5.5 10.6-4.8 1.8.3 3.6 1 5.2 2 1.5.9 2.5 2.2 3.7 3.3-3.3 1.9-6.1 3.3-10 3.2z" fill="#000000" stroke-width="none" opacity="1"></path></g></g></g><g id="svga-group-facehighlight-single"></g><g id="svga-group-eyebrows-left-move" transform="matrix(1,0,0,1,0,0)"><g id="svga-group-eyebrows-left-rotate" transform="matrix(1,0,0,1,0,0)"><g id="svga-group-eyebrows-left"><path id="SvgjsPath12589" d="M65.5 85.3c.1-.5.4-.9.6-1.4.2-.5.5-1.1.8-1.5-.1-.2-.1-.5.1-.7.4-.6.8-1.1 1.2-1.8.3-.6.5-1.3.9-1.8.5-.7 1.8-.6 2.8-.4.5-.1 1.1-.1 1.6 0 .2 0 .9.1 1.3.3h.1c1.2-.2 2.4-.3 3.6.3.7 0 1.4 0 2.1.1 1.1.1 2.3.1 3.3.4H85.6c.7-.1 1.4-.1 2.2-.2h.1c.3-.1.5-.2.8-.3.2-.1.3 0 .4.1.1 0 .2-.1.3-.1.1 0 .2 0 .2.1.5-.2 1-.4 1.5-.5h.1c.2-.2.5-.1.4.2-.1.6-.3 1-.7 1.5-.3.4-.6.8-1 1.1.3 0 .7-.1 1-.1.1-.1.3-.2.4-.3.4-.4.9-.9 1.2-1.4.1-.2.4.1.3.2-.1.1-.2.2-.2.4v.1c0 .1-.1.1-.1.1v.2c-.2.7-.6 1.4-1.1 2 .1.1.1.2.1.3-.4 1.1-1.6 2.1-2.7 2.7-.2.1-.5.1-.6-.1-1.6.2-3.5.2-5.3.2-1.3 0-3 .1-4.2-.6-.8.1-1.7-.2-2.6-.4-1 .5-2.1.1-3.1-.2-.4-.1-.7-.3-1.1-.4-.3.1-.7.1-1.1.1h-.5c-.3.3-.6.5-1 .8-.5.3-1 .7-1.6.8h-.2c-.3.2-.6.4-.9.5-.1.2-.2.4-.4.6-.1.1-.2.1-.3.1-.2.2-.4.4-.7.4-.2 0-.3-.2-.3-.3 0-.5.3-.8.6-1.1z" fill="#2a232b" stroke-width="none" opacity="1"></path><path id="SvgjsPath12590" d="M84.8 84.3c1.4-.6 2.8-1 4.1-1.8 1.4-.8 2.5-1.9 3.7-3.1.1-.1.3 0 .2.2-1.6 2.4-4.8 4.8-7.8 5-.3.1-.4-.2-.2-.3zm.4.6c1.9-.4 3.6-.9 5.2-1.9.1-.1.2.1.1.2-1.5 1.2-3.4 2-5.3 2-.1-.1-.1-.3 0-.3zm-2.8-1.3c1.1-.7 2.2-1.3 3.3-2.1s1.9-1.8 2.8-2.7c.1-.1.2 0 .2.1-1.1 2.1-3.8 4.3-6.2 4.8-.2.1-.2-.1-.1-.1zm-5.6.7c2.6-1.4 5-2.5 6.5-5.2.1-.1.2 0 .2.1-1.2 2.6-3.8 4.6-6.6 5.3-.2 0-.3-.2-.1-.2zm-3.5-1.1c.7-.7 1.6-1.3 2.2-2.1.7-.9 1.1-1.9 1.7-2.8.1-.1.3-.1.2.1-.2 1.9-2.2 4.5-4 5.1-.1.1-.2-.1-.1-.3zm-2.6-.1c1.6-1.5 3-2.8 3.9-4.8.1-.1.3 0 .2.1-.7 2-1.9 4.1-3.9 5-.1 0-.3-.2-.2-.3zm-5.6 1.8c.9-.6 1.9-.9 2.9-1.3.8-.3 1.6-.7 2.5-.4.1 0 .1.2 0 .2-.9-.1-1.8.4-2.7.8-.8.3-1.7.8-2.6.9-.2.1-.3-.1-.1-.2z" fill="#3a353a" stroke-width="none" opacity="1"></path><path id="SvgjsPath12591" d="M64 87c-.2.2 0 .4.2.4h.1c.1.1.3.1.4 0 0-.1.1-.1.1-.1 1.1-.4 2.1-1.2 3-1.8.9-.5 1.8-1 2.6-1.7 2.9.8 6.2.9 9.2 1.2 2.9.2 6 .4 9 .2.1.1.2.1.3.1.1 0 .1-.1.1-.1h.3c.2 0 .2-.2.2-.3 2.1-1.5 3.5-3.7 3.7-6.3 0-.1 0-.1-.1-.1 0-.1-.2-.2-.3-.1l-1.2 1.2-.1.1c.3-.4.4-1 .5-1.5 0-.3-.3-.3-.4-.1-.2.6-.4 1.1-.8 1.6-.3.4-.9.8-1.1 1.2-.1.1 0 .2.1.2.2 0 .5-.1.7-.3h.1c.6-.2 1-.5 1.5-.9.2-.2.5-.5.7-.8-.6 2.3-1.9 4.2-3.9 5.4-1.6-.1-3.1-.1-4.7-.2 1-.5 2-1.3 2.7-1.9 1.3-1.1 2.3-2.5 3-4.1.7-.1 1.3-.3 1.9-.6.1-.1.1-.2-.1-.2-1 0-1.9.3-2.9.4-.9.1-1.8.1-2.7.1-1.8 0-3.6-.1-5.4-.3-3.6-.3-7.6-1.1-11.2-.7-.2 0-.3.2-.3.4-1.1 1.4-1.9 3-2.7 4.6-.7 1.4-1.6 3-2 4.5l-.5.5zm1.5-1.1c.6-1.2 1-2.4 1.6-3.6.8-1.5 1.6-2.9 2.3-4.5 2 .1 4 0 5.9.2 1.9.2 3.8.4 5.7.5 1.9.2 3.8.3 5.7.2.8 0 1.8-.1 2.7-.2-.9 1.4-1.9 2.6-3.2 3.6-.7.5-1.4 1-2.2 1.4-.6.3-1.2.4-1.7.8h-.9c1.6-.9 3.1-2.4 3.6-4.1.1-.2-.2-.3-.3-.2-.6.7-1.1 1.6-1.8 2.3-.7.7-1.5 1.3-2.3 1.9h-.7c-1.5-.1-3.1-.3-4.6-.4.9-.8 1.6-2 1.8-3.1 0-.1-.2-.2-.2-.1-.3.6-.6 1.2-1 1.7-.3.5-.8.9-1.2 1.3-1.1-.2-2.2-.4-3.3-.5.1-.1 0-.4-.2-.3-.2.1-.4.2-.7.3 0 0-.1 0-.1.1-1 .5-1.9 1.1-2.8 1.6-.8.4-1.4.7-2.1 1.1z" fill="#1b141c" stroke-width="none" opacity="1"></path></g></g></g><g id="svga-group-eyebrows-right-move" transform="matrix(1,0,0,1,0,0)"><g id="svga-group-eyebrows-right-rotate" transform="matrix(1,0,0,1,0,0)"><g id="svga-group-eyebrows-right"><path id="SvgjsPath12592" d="M134.5 85.3c-.1-.5-.4-.9-.6-1.4-.2-.5-.5-1.1-.8-1.5.1-.2.1-.5-.1-.7-.4-.6-.9-1.1-1.2-1.8-.3-.6-.5-1.3-.9-1.8-.5-.7-1.8-.6-2.8-.4-.5-.1-1.1-.1-1.6 0-.2 0-.9.1-1.3.3h-.1c-1.2-.2-2.4-.3-3.6.3-.7 0-1.4 0-2.1.1-1.1.1-2.3.1-3.3.4H114.4c-.7-.1-1.4-.1-2.2-.2h-.1c-.3-.1-.5-.2-.8-.3-.2-.1-.3 0-.4.1-.1 0-.2-.1-.3-.1-.1 0-.2 0-.2.1-.5-.2-1-.4-1.5-.5h-.1c-.2-.2-.5-.1-.4.2.1.6.3 1 .7 1.5.3.4.6.8 1 1.1-.3 0-.7-.1-1-.1-.1-.1-.3-.2-.4-.3-.4-.4-.9-.9-1.2-1.4-.1-.2-.4.1-.3.2.1.1.2.2.2.4v.1c0 .1.1.1.1.1v.2c.2.7.6 1.4 1.1 2-.1.1-.1.2-.1.3.4 1.1 1.6 2.1 2.7 2.7.2.1.5.1.6-.1 1.8.1 3.7.1 5.6.1 1.3 0 3 .1 4.2-.6.8.1 1.7-.2 2.6-.4 1 .5 2.1.1 3.1-.2.4-.1.7-.3 1.1-.4.4.1.7.1 1.1.1h.5c.3.3.6.5 1 .8.5.3 1 .7 1.6.8h.2c.3.2.6.4.9.5.1.2.2.4.4.6.1.1.2.1.3.1.2.2.4.4.7.4.2 0 .3-.2.3-.3-.3-.4-.6-.7-.9-1z" fill="#2a232b" stroke-width="none" opacity="1"></path><path id="SvgjsPath12593" d="M115.2 84.3c-1.4-.6-2.8-1-4.1-1.8-1.4-.8-2.5-1.9-3.7-3.1-.1-.1-.3 0-.2.2 1.6 2.4 4.8 4.8 7.8 5 .3.1.4-.2.2-.3zm-.4.6c-1.9-.4-3.6-.9-5.2-1.9-.1-.1-.2.1-.1.2 1.5 1.2 3.4 2 5.3 2 .1-.1.1-.3 0-.3zm2.8-1.3c-1.1-.7-2.2-1.3-3.3-2.1s-1.9-1.8-2.8-2.7c-.1-.1-.2 0-.2.1 1.1 2.1 3.8 4.3 6.2 4.8.2.1.2-.1.1-.1zm5.6.7c-2.6-1.4-5-2.5-6.5-5.2-.1-.1-.2 0-.2.1 1.2 2.6 3.8 4.6 6.6 5.3.2 0 .3-.2.1-.2zm3.5-1.1c-.7-.7-1.6-1.3-2.2-2.1-.7-.9-1.1-1.9-1.7-2.8-.1-.1-.3-.1-.2.1.2 1.9 2.2 4.5 4 5.1.1.1.2-.1.1-.3zm2.6-.1c-1.6-1.5-3-2.8-3.9-4.8-.1-.1-.3 0-.2.1.7 2 1.9 4.1 3.9 5 .1 0 .3-.2.2-.3zm5.6 1.8c-.9-.6-1.9-.9-2.9-1.3-.8-.3-1.6-.7-2.5-.4-.1 0-.1.2 0 .2.9-.1 1.8.4 2.7.8.8.3 1.7.8 2.6.9.2.1.3-.1.1-.2z" fill="#3a353a" stroke-width="none" opacity="1"></path><path id="SvgjsPath12594" d="M135.6 86.7c-.4-1.6-1.3-3.1-2-4.5-.8-1.6-1.6-3.2-2.7-4.6 0-.2-.1-.4-.3-.4-3.7-.5-7.6.3-11.2.7-1.8.2-3.6.3-5.4.3-.9 0-1.8-.1-2.7-.1-1-.1-1.9-.4-2.9-.4-.1 0-.2.2-.1.2.6.3 1.2.5 1.9.6.7 1.6 1.7 3 3 4.1.7.6 1.7 1.4 2.7 1.9-1.6.1-3.1.1-4.7.2-2-1.2-3.4-3.2-3.9-5.4.2.3.5.5.7.8.4.4.9.8 1.5.9h.1c.2.2.4.3.7.3.1 0 .2-.1.1-.2-.2-.5-.8-.8-1.1-1.2-.4-.5-.6-1.1-.8-1.6-.1-.2-.4-.2-.4.1 0 .5.2 1 .5 1.5l-.1-.1-1.2-1.2c-.1-.1-.3 0-.3.1l-.1.1c.2 2.6 1.6 4.9 3.7 6.3 0 .1 0 .3.2.3h.3c.1 0 .1.1.1.1.1.1.2 0 .3-.1 3 .2 6 0 9-.2s6.3-.3 9.2-1.2c.8.6 1.8 1.1 2.6 1.7.9.6 1.9 1.3 3 1.8 0 .1.1.1.1.1.1.2.3.2.4 0h.1c.2.1.4-.2.2-.4-.2-.3-.3-.4-.5-.5zm-3-1.9c-.9-.6-1.8-1.2-2.8-1.6 0 0-.1 0-.1-.1l-.6-.3c-.2-.1-.3.2-.2.3-1.1.1-2.2.3-3.3.5-.4-.4-.8-.8-1.2-1.3-.4-.6-.7-1.1-1-1.7-.1-.1-.2 0-.2.1.2 1.1.9 2.3 1.8 3.1-1.5.2-3.1.3-4.6.4h-.7c-.8-.6-1.7-1.2-2.3-1.9-.7-.7-1.2-1.5-1.8-2.3-.1-.2-.4 0-.3.2.5 1.7 2 3.2 3.6 4.1h-.9c-.5-.4-1.1-.6-1.7-.8-.8-.4-1.5-.9-2.2-1.4-1.3-1-2.3-2.2-3.2-3.6.9.1 1.8.2 2.7.2 1.9.1 3.8 0 5.7-.2 1.9-.2 3.8-.4 5.7-.5 2-.2 4-.1 5.9-.2.6 1.6 1.5 3 2.3 4.5.6 1.1 1 2.4 1.6 3.6-1-.4-1.6-.7-2.2-1.1z" fill="#1b141c" stroke-width="none" opacity="1"></path></g></g></g><g id="svga-group-beardwrap"><g id="svga-group-beard-single-move" transform="matrix(1,0,0,1,0,0)"><g id="svga-group-beard-single" transform="matrix(0.8499994000000002,0,0,0.8499994000000002,15.052745948352793,18.959897540336584)"><path id="SvgjsPath12646" d="M144.2 93c-1.2-3.7-2.7-2.1-3.2-.7-.5 1.4-1.7 12.2-2.9 17.1-1.8 7.6-11 16.3-12.6 15.4s1.1-4.9-1.8-7.7c-1.9-1.9-13.8 1.1-23.5 1.2-6.2.1-19.7-4.1-23.8-1.2-2.8 1.9-1.6 6.6-2.1 7.8s-7.8-6.6-9.6-10.8c-1.8-4.3-4.3-19.4-4.6-22.4-.3-3-2.5-2.8-3-1.6-.6 1.4-2.5 6.4-2.9 12.8-.5 7.6-.5 19.6 1.8 28 2.3 8.4 8 13.9 8 13.9l.3-1.4s5.3 8.7 12.6 12.6c7.3 3.9 19.6 6.8 19.6 6.8l-.8-2.1 4 2.7 10.1-2.2-1.6 1.3s9.7-.3 22.2-8.5c5-3.7 8.7-10.7 9.6-13.3l.4 1.8s4.1-11.4 5.1-18.1l.5.7c0-.1 2.8-18.2-1.8-32.1zm-29.1 45.8c-4.1 4.8-27.5 3.5-31.4-1.4-3-3.7-4.4-15.1-1.2-15.4 0 0 32.5-.6 35 .3 2.4.9 1.7 11.8-2.4 16.5z" fill="#3b3128" stroke-width="none" opacity="1"></path><path id="SvgjsPath12647" d="M58.2 89.7c.1-.3-.3-.5-.5-.3-2.7 4.2-3.8 9.6-4 14.5 0 .2.3.3.3 0 .8-4.9 2.5-9.4 4.2-14.2zm-.9 9.3c0-.2-.2-.2-.3 0-1.4 6.2-1 12.9 0 19.2 0 .2.3.1.3 0-.5-6.5-.2-12.7 0-19.2zm.8-5.2c-.2 2.8-.5 5.7-.5 8.5 0 .2.3.3.3.1.4-2.8.5-5.7.6-8.5 0-.3-.4-.3-.4-.1zm1.5 21.2c-.3-3.7-.6-7.4-.5-11.2 0-.4-.5-.4-.6 0-.1 3.8-.1 7.5.6 11.2.2.3.6.2.5 0zm.7 12.2c0 .2.4.2.4-.1-.2-3.6-.5-7.1-.5-10.7 0-.2-.3-.2-.3 0-.3 3.6-.3 7.3.4 10.8zm2.7 6.4c-.6-3.2-1.2-6.4-1.2-9.7 0-.4-.6-.4-.6 0 0 3.3.3 6.7 1.4 9.8.2.2.5.1.4-.1zm-3.4-33.3c-.2-3.8-.2-7.4.2-11.1 0-.2-.3-.2-.3 0-.8 3.7-.9 7.6-.2 11.2 0 .2.3.1.3-.1zm1.4 3.4c-.1-2.9-.4-5.8-.8-8.6 0-.2-.3-.2-.3 0 .2 2.9.3 5.8.7 8.7.1.1.4.1.4-.1zm2.3 10.3c-.4-3-1-6.1-1.4-9.1 0-.2-.4-.2-.4.1.3 3.1.6 6.1 1.4 9.1.1.2.5.1.4-.1zm2.9 5.5c-.8-2.7-1.6-5.3-2.1-8.1-.1-.3-.5-.2-.4.1.5 2.8 1.2 5.5 2.3 8.1 0 .1.2 0 .2-.1zm2.6 4.5c-.7-2.5-1.6-5-2.2-7.5-.1-.3-.6-.2-.5.1.6 2.5 1.3 5.2 2.4 7.5 0 .3.3.1.3-.1zm2.3 3.2c-1.1-2.6-2.3-5.1-3.2-7.9-.1-.2-.4-.1-.4.1.7 2.7 1.6 5.6 3.2 7.9.2.3.5.1.4-.1zm2.1 1.9c-.7-1.9-1.7-3.6-2.3-5.5-.1-.3-.6-.2-.5.1.6 1.9 1.3 4 2.4 5.6.1.2.5.1.4-.2zm12 12.4c-.4-.6-.8-1.3-1.2-1.9 1.2 1.7 2.5 3.3 4.1 4.6.2.2.4-.1.3-.3-1.6-2-3.4-3.8-4.9-5.9-.1-.1-.3-.1-.4-.1-1.8-3.9-2.4-8-3-12.5 0-.3-.5-.3-.5 0 .2 5.7.9 12.1 5.1 16.5.3.1.7-.2.5-.4zm4.1 1.9c1 1.5 2.1 3 3.4 4.2.1.1.3 0 .2-.2-1-1.5-2.2-2.8-3.2-4.3-.1-.2-.5 0-.4.3zm3.7 1.5c-.4-.7-1.1-1.3-1.6-1.9s-.9-1.4-1.3-2.1c-.2-.3-.6 0-.4.3.7 1.4 1.7 3.2 3 4.1.2.1.5-.1.3-.4zm3.5-1.4c.6 3.1 1.2 6.3 2.3 9.3.1.3.4.1.4-.1-.5-3.1-1.4-6.2-2.2-9.3-.1-.4-.6-.3-.5.1zm4.1 10.5c0-1.3-.4-2.5-.7-3.8-.3-1.6-.5-3.3-.7-5 0-.2-.3-.2-.3 0 0 2.8.1 6.3 1.3 8.8.1.2.4.1.4 0zm1.1.4c-.1-2.7-.6-5.3-1-8 0-.3-.5-.2-.5.1.3 2.6.5 5.4 1.1 8 0 .2.4.1.4-.1zm11.8-13.3c-.9 2.6-2.3 5.1-3.2 7.8-.1.2.2.2.3.1 1.6-2.2 2.6-5.1 3.5-7.7 0-.4-.5-.5-.6-.2zm6.8-4.8c-1.3 3.1-2.7 6.2-4 9.4-.1.2.2.3.3.1 1.7-3 3-6.1 4.3-9.3.2-.5-.4-.6-.6-.2zm-31.7 20.9c.1.1.2-.1.2-.2-2.3-2.6-4-5.2-4.4-8.7 0-.2-.4-.2-.3 0 .2 3.3 1.6 6.8 4.5 8.9zm-19.4-13.8c-.3-1.1-.9-2.2-1.4-3.2-.5-1.2-1-2.5-1.3-3.8-.1-.2-.4-.1-.3.1.6 2.3 1.3 5.1 2.8 7 0 .1.2 0 .2-.1zm-2-.3c.1.1.3-.1.2-.2-1.2-1.9-1.9-4.2-2.3-6.4 0-.2-.3-.1-.3.1.2 1.4.5 2.8 1 4.2.4.8.6 1.8 1.4 2.3zm31.5 15.4c-.3-1.2-.9-2.3-1-3.6 0-.2-.4-.2-.4 0 .1 1.2.3 2.8 1.2 3.8.1 0 .2-.1.2-.2zm1.1.2c0-1.1-.4-2.3-.5-3.4 0-.2-.4-.2-.3 0 .1 1.1.1 2.5.6 3.5 0 .1.1 0 .2-.1zm1.7-.8c0-.9-.3-1.8-.4-2.6 0-.2-.4-.2-.4 0 .1.9.1 1.9.5 2.7.1.1.3 0 .3-.1zm4.8 1.4c-1.1.7-2.1 1.6-3.2 2.3-.2.1-1.3.7-2.2 1.1.4-.3.8-.7 1.1-.9.9-.8 1.9-1.6 2.6-2.6.1-.1-.1-.3-.2-.2-.9.7-1.8 1.5-2.7 2.3l-.1.1c1.3-1.5 2.5-3.2 3.4-5 .1-.1-.1-.3-.2-.2-.5.6-1 1.3-1.5 2-.1 0-.2 0-.3.1-.8.7-1.6 1.3-2.3 2l-.1.1c-.1-.1-.1-.2-.2-.4.4-.4.7-.9 1.1-1.3.3-.4-.2-1-.6-.6-.4.5-.8.9-1.2 1.4l-.1.1c-.2.3-.5.5-.7.8-.3-1-.8-2.1-1.2-3-.1-.2-.3-.3-.4-.2-.3-.5-.5-1-.8-1.5-.4-1-.8-1.9-1.1-2.9-.1-.2-.4-.1-.3.1.4 1.6 1 3.4 2 4.8l.8 1.9v.1c-.1-.1-.2-.1-.3-.2-.3-.2-.7.1-.4.4.4.3.8.7 1.2 1 0 0 0 .1.1.1-.3.3-.7.6-1 .9-.2-1-.7-1.9-1.1-2.9-.4-1.1-.6-2.1-.9-3.2-.1-.4-.7-.2-.7.2.1.3.1.6.2 1-.5-.7-1-1.4-1.3-2.2-.5-1-.9-2.1-1.3-3.2-.1-.2-.4-.1-.3.1.6 2 1.3 4.6 3.1 6 .3 1.4.7 2.9 1.4 4.1-.2-.1-.4-.2-.6-.4-.3-.6-.7-1.1-.9-1.7-.5-1-.8-2-1.1-3-.1-.2-.3-.3-.5-.2-.2-.5-.5-1-.7-1.5-.2-.6-.4-1.3-.6-2-.1-.2-.4-.1-.3.1.2 1.2.6 2.6 1.3 3.7v.2c.3 1.1.6 2.4 1.2 3.6 0 0-.1 0-.1-.1-.3-.5-.7-1-1-1.5-.4-.6-.7-1.2-1.1-1.9l.2.2c.1.1.2 0 .2-.1-.2-.7-.7-1.3-1-1.9-.4-.8-.8-1.6-1-2.4-.1-.2-.4-.1-.3.1.2.8.5 1.7.9 2.5-.2 0-.4.2-.3.4l.3.6c-.9-1.5-1.6-3.1-2.3-4.8-.1-.2-.4-.1-.3.1.5 1.3 1 2.6 1.6 3.8.4.9.8 1.8 1.7 2.3.2.5.4.9.7 1.4-.4-.2-.8-.5-1.1-.8-.1 0-.1-.1-.2 0-.2-.3-.4-.6-.6-1v-.1c-.5-1.1-1.2-2.1-1.8-3.1-.6-1-1.1-2.1-1.6-3.2-.1-.2-.4-.1-.3.1.7 1.8 1.5 3.9 2.8 5.4-.1.1-.1.2 0 .3.6 1.1 1.2 2.1 1.9 3.1-3.1-2.8-6-5.6-8.4-9.2-.2-.3-.7 0-.5.3 2 3.3 4.6 6.6 7.8 8.9-.4-.2-.8-.3-1.2-.5-3.3-3.2-6.5-6.2-9.2-10-.3-.4-.9 0-.6.4 2 3.1 4.5 6.3 7.4 8.7-.1-.1-.2-.1-.4-.1-2.1-1.7-4.1-3.2-5.8-5.1.1-.1.1-.2 0-.3-.8-1.1-1.6-2.2-2.5-3.3-.1-.1-.1-.2-.2-.4 0-.1-.1-.1-.2-.1-.7-.8-1.3-1.7-1.9-2.5.4.5.8.9 1.2 1.4l.9 1.2c.1.1.2 0 .2-.1l.2.2c.2.2.6-.1.4-.3-3.2-4.4-6.4-8.7-8.5-13.9-.1-.3-.7-.2-.6.1.4 1.1.8 2.1 1.2 3.1-.2-.2-.6 0-.5.3.2.6.4 1.2.7 1.8 0 0 0-.1-.1-.1-.1-.3-.6-.1-.5.2 1.1 2.6 2.4 5.1 3.9 7.5-1.3-1.9-2.5-4-3.4-6.2-.1-.3-.7-.1-.6.2 2 5 4.8 10 9.1 13.5.1.1.3.1.3 0 .6.7 1.2 1.3 1.9 1.9-.3-.1-.6-.3-1-.5-1.7-1.6-3.4-3.1-4.9-4.9-.1-.1-.1-.1-.2-.1-2.1-2.6-4.1-5.3-5.5-8.4-.2-.4-.8-.1-.6.4 1.5 3.4 3.4 6.8 6.2 9.3.4.4.9.9 1.3 1.2.4.4.8.9 1.2 1.3-1-.5-1.9-1.1-2.8-1.8-1-1.6-2.3-3-3.3-4.6-1.1-1.6-2-3.2-2.9-4.9-.2-.5-.9-.1-.7.4 1 2.1 2.2 4.5 3.8 6.5l-.5-.5h-.1c-1.6-2.4-3.3-4.8-4.7-7.4-.1-.1-.2-.1-.3-.1-.2-.5-.4-1-.7-1.5-.1-.1-.3-.1-.2.1.2.6.5 1.2.7 1.8 0 .1.1.2.1.3.5 1.2 1.1 2.3 1.7 3.4.7 1.3 1.5 2.6 2.3 3.8-.6-.5-1.1-1-1.6-1.6v-.1c-1.2-2.2-2.5-4.2-3.6-6.4-.8-2.4-1.6-4.7-2.1-7.2 0-.3-.5-.2-.5.1.2 1.2.5 2.4.8 3.6-.2-.1-.5.1-.4.4.4 1.2.8 2.4 1.3 3.5-.1-.2-.2-.4-.4-.7-.1-.2-.2-.4-.2-.6-.6-1.6-1.1-3.4-1.6-5 0-.1-.1-.1-.1-.2-.6-2.4-1.1-4.7-1.3-7.2 0-.3-.5-.3-.4 0 .2 2.5.5 5.1 1.2 7.5.5 1.8.9 3.8 1.6 5.6-.1-.1-.1-.2-.2-.3-.3-1-.7-2.1-1-3.1-.4-1.3-.8-2.7-1.1-4 0-.1-.1-.2-.2-.2-.2-2.2-.7-4.4-.8-6.7 0-.2-.3-.2-.3 0 0 1.3 0 2.6.2 4-.3-2-.6-4-.5-6.1 0-.2-.3-.2-.3 0-.1 1.8-.2 3.8.2 5.7-1.1-2.2-.9-5.3-1.2-7.7 0-.2-.3-.2-.3 0 .1 1.7.2 3.3.3 5-.2-.3-.7-.2-.7.2-.3-1.1-.2-2.7-.3-3.6 0-1.3 0-2.6.1-3.8 0-.2-.3-.2-.3 0-.2 2-.3 3.9-.1 5.9.1.7 0 1.8.6 2.3v1.7c-.3-1.4-.6-2.8-.8-4.2l.1-.1c-.5-2.9-.5-5.5-.3-8.4 0-.2-.2-.2-.3 0-.2 1.9-.5 4-.3 6v1.8c-.7-5.7-1-11.3-.8-17.1 0-.2-.3-.2-.4 0-.7 7.2-.3 14.6 1.4 21.7 0 .2.2.2.3.1.7 3.9 1.9 7.7 4 10.9.1.1.4.1.3-.1-.5-1.4-1-2.8-1.4-4.2.1 0 .1-.1.1-.2-.3-.9-.5-1.8-.6-2.6.3.9.7 1.8 1.1 2.7.1.2.1.5.2.8 0 .1.1.1.2.1.7 1.4 1.5 2.8 2.3 4.1.1.2.2.3.3.5 0 .1.1.1.2.1.6.8 1.2 1.5 1.9 2.2.2.4.5.7.8 1.1.1.1.3.1.3-.1 2.3 3.5 5.3 6.6 9.4 7.9h.2c3.5 2.5 7.6 4.1 11.8 5.2.2.1.3-.2.1-.3-1-.4-1.9-.9-2.9-1.3-.2-.2-.4-.3-.6-.5 2.8 1.6 5.9 2.8 8.9 3.8.2.2.4.4.7.5.3.1.5-.2.3-.4 0-.1 0-.2-.1-.2-.1-.1-.2-.1-.2-.2-.6-.6-1.1-1.3-1.6-2l1.2.9c.4.6 1 1.1 1.6 1.5.2.1.4-.1.3-.3-.1-.1-.1-.2-.2-.3.2.2.3.4.5.6.2.2.5.1.6-.1.2.1.4.1.6.2l-.4.4c-.2.3.1.7.4.5.9-.4 1.7-1.1 2.4-1.9.1.1.1.1.2.1h.1c-.2.2-.4.4-.6.7-.2.2.1.5.4.4.8-.4 1.4-1 2-1.6-.1.2-.2.3-.4.5-.1.2 0 .4.1.4-.6.4-1.2.9-1.6 1.5 0 .1 0 .1.1.1h.1c0 .1.1.1.1.1.9.3 2.6-.9 3.3-1.3 1.3-.8 2.7-1.7 3.7-2.9 0-.1-.2-.3-.3-.2zM60 137.2c-.2-1.3-.5-2.6-.7-3.9 0-.3-.5-.2-.5.1.1.5.2 1 .2 1.6-.3-.8-.6-1.6-.9-2.5 0-.1 0-.1-.1-.1v-1.8c.1 1 .2 1.9 1 2.5h.2c.1.4.2.9.4 1.3.1.2.4.2.3-.1 0-.2 0-.4-.1-.6.1.7.2 1.3.5 1.9-.1.1-.1.2-.1.3.2 1 .4 2.1.7 3.2-.2-.5-.5-1.2-.9-1.9zm39.4 24.1c-.1-.1-.1-.2-.2-.2.2-.3.5-.5.7-.8.1.1.2.2.2.3-.2.2-.4.5-.7.7zm25.6-8.9c2.1-2 3.3-5.1 4-7.8.1-.3-.3-.4-.4-.1-.8 2.9-2.2 5.2-3.8 7.8-.1 0 .1.2.2.1zm4.2-4.3c-2 3.1-4.3 5.8-6.7 8.4-.3.1-.5.3-.8.4 1.1-1.3 2.1-2.7 3-4 .2-.3-.2-.6-.4-.3-1.6 2.2-3.6 4-5.5 5.9-.3.1-.6.3-.9.4l.2-.2c1.1-.8 2.1-1.7 3.1-2.6.3-.3-.1-.8-.5-.5-.2.2-.5.4-.7.6.2-.3.4-.6.6-1 0 .1.1.1.2.1 2.7-1.5 4.6-4.6 5.6-7.5.1-.2-.3-.3-.4-.1-1.2 2.9-3.1 4.9-5.2 7.1.1-.2.3-.4.4-.6.1-.1 0-.3-.1-.4.4-.7.8-1.4 1.1-2.1.1-.2-.2-.3-.3-.1-.8 1.7-1.9 3.1-3.2 4.4.1-.1.1-.2.2-.4.6-1.2 1.2-2.3 1.9-3.5.2-.4-.3-.7-.5-.4-1.1 2-2.6 4.2-3.2 6.4v.1c-.1 0-.1-.1-.2-.1 0-.1-.1-.2-.1-.3 1.1-1.8 1.8-3.9 2.4-6 .8-.9 1.5-1.9 1.7-3.1 0-.1-.2-.2-.2-.1-.3.5-.6 1.1-.9 1.7-.1.2-.2.4-.4.6 0-.1.1-.2.1-.3.1-.4-.5-.6-.6-.2-.7 2.7-1.8 5.1-3.1 7.5-1 .7-2.1 1.4-3.1 2 1.6-1.3 3-3.1 4.1-4.8.2-.2-.2-.5-.3-.2-.7 1-1.6 2-2.4 2.9-.2.1-.5.2-.7.4.4-.4.8-.9 1.2-1.3.3-.4-.3-.8-.6-.4-1.1 1.2-2.3 2.3-3.6 3.3l-1.2.6c-.2.1-.2.2-.1.3-1 .6-2.1 1.2-3 1.9-.2.1 0 .5.2.4 1.9-.5 3.8-1.7 5.4-3.2l1.2-.6c-.2.2-.3.4-.5.6-.2.2.1.4.3.3-.9.6-1.8 1.1-2.7 1.7l-.1.1c-.1.2.1.5.3.4 1.2-.4 2.4-.9 3.6-1.5 0 .2.2.4.3.3.5-.3 1.1-.6 1.6-1 .1.1.2.1.4.1.4-.3.8-.6 1.2-1 0 .1.1.2.3.1-.3.3-.7.6-1 1-.2.2 0 .6.3.4.6-.4 1.2-.8 1.8-1.3 0 .2.2.4.5.3.1 0 .1-.1.2-.1-.1.1-.2.2-.3.4-.2.2.1.4.3.3.6-.4 1.2-.9 1.8-1.4 3.3-1.6 6.2-4 7.9-7.1.2-.3-.2-.6-.5-.3-1.4 1.7-2.9 3.2-4.4 4.5 2.1-2.4 3.9-5.2 5.4-7.8.2-.1-.2-.4-.4-.1zm-8.7 10.5c-.3.2-.7.3-1.1.5.3-.3.6-.5.9-.8.3-.1.6-.3.8-.4-.1.2-.3.5-.6.7zm-15.9-.5c1.3-2 2.7-3.9 3.8-6 .1-.1-.1-.2-.2-.1-1.6 1.7-2.9 3.8-4.1 5.9-.1.2.3.5.5.2zm1.3-.5c1-1.2 2.2-2.4 3-3.8.1-.1-.1-.2-.2-.1-1.2 1.1-2.1 2.5-3.1 3.7 0 .1.2.4.3.2zm1.4-.2c1.2-.8 2.5-1.8 3.1-3.1.1-.1-.1-.2-.2-.1-.5.5-.9 1-1.4 1.5-.5.5-1.1 1-1.7 1.5 0 .1.1.3.2.2zm9.9-6c-1 1.1-1.8 2.3-3 3.2-.2.1.1.4.2.3 1.2-.9 2.4-2 3-3.4.1-.1-.1-.2-.2-.1zm-2.4.9c-1.1 1.1-2.1 2.5-3.1 3.7-.1.2.1.4.2.2 1.1-1.2 2.2-2.4 3-3.8.1-.1 0-.2-.1-.1zm-2.6 1.1c-1 1.2-1.8 2.5-3.1 3.5-.2.1.1.4.2.2 1.2-.9 2.4-2.2 3-3.6.1-.1-.1-.2-.1-.1zm-1.5 2.6c-.9 1.6-2.4 2.7-3.6 4-1.2.8-2.4 1.6-3.4 2.6-.2.1 0 .4.2.4 2.1-.9 3.8-2.4 5.6-3.8.3-.2.1-.6-.2-.6.7-.7 1.4-1.5 1.8-2.5-.1-.2-.4-.2-.4-.1zm21.2-9.8c1.6-2.7 1.8-6 1.9-9 0-.3-.4-.3-.4 0-.3 3.1-.7 6-1.7 8.9-.1.1.1.2.2.1zm-3.2 2.8c1.4-2 2.2-4.6 2.7-6.9.1-.2-.3-.3-.3-.1-.6 2.4-1.6 4.6-2.6 6.9-.1.2.2.2.2.1zm11-14.7c-.7 3.2-1.7 6.2-2.8 9.2-.1 0-.2.1-.2.2-1.5 3.2-3 6.1-5.2 8.8 1.9-3.5 3.5-7.2 4.7-11.1.1-.4-.4-.6-.6-.2-.9 2.5-2 4.9-3.1 7.3-.1 0-.1 0-.2.1-2.2 3.7-4.9 6.7-8.2 9.4-.2.2 0 .6.3.4 2.4-1.3 4.5-3.3 6.1-5.5-.2.4-.4.9-.6 1.4-.2.3-.3.7-.5 1-.1.2.2.4.4.2.2-.3.4-.6.5-.9 1.5-1.3 2.9-2.8 4.1-4.5.1.1.3.2.4 0 2.7-4.8 4.4-10.1 5.5-15.5 0-.5-.5-.6-.6-.3zm-21.3-16.2c1.8 2.6 1.6 5.9 2.2 8.9 0 .2.3.1.3 0 .2-2.9-.5-6.6-2.2-9.1-.2-.1-.4 0-.3.2zm2.3.3c.9 4.7.7 9.2.9 13.8 0 .2.3.2.3 0 .5-4.6.3-9.5-.9-13.9 0-.2-.3-.1-.3.1zm2.1 28.9c-.8 1.1-1.3 2.3-2.1 3.3-.1.1.1.3.3.2.8-1 1.7-2.2 2-3.4.1-.1-.1-.2-.2-.1zm2.3-1.4c-.8 1.2-1.3 2.4-2.3 3.5-.2.2.1.4.3.3 1-1 2-2.3 2.3-3.6 0-.3-.2-.4-.3-.2zm-1.8-28.5c.2 0 .3-.1.3-.3.9 2.4.9 5 .6 7.6-.1-2-.5-4-1.1-5.9-.1-.2-.3-.1-.3.1.7 2.9.9 5.8 1 8.7-.2 1.3-.3 2.6-.4 3.9 0 .3.4.3.4.1 1.2-4.6 2.1-10.4 0-14.9-.1-.2-.4-.1-.4.2l-.1-.1c-4.7-1.1-9.3.1-14 .9-7.3 1.3-14-.1-21.2-1.1-.1 0-.2.2-.1.2 5.6 1.3 11 3.1 16.8 2.7 1.2-.1 2.5-.2 3.7-.4 1 0 1.8.8 2.6 1.5-3.1-.1-6.3.1-9.4.5-.1-.1-.2-.2-.4-.2-1.9.3-3.8.4-5.6.5.2-.3.5-.5.6-.9.1-.1-.1-.2-.2-.1-.3.2-.5.5-.7.8v.2c-.6 0-1.2 0-1.8.1.2-.4.4-.9.7-1.3.3-.4.7-.7 1.1-1.1.1-.1 0-.3-.1-.2-1.1.3-1.8 1.5-2.1 2.6-1.9 0-3.8-.1-5.7-.2.7-1.4 2.6-1.9 3.8-2.6.1-.1.1-.2-.1-.2-1.5.1-3.6 1.2-4.2 2.8h-.6c-.4 0-.9-.1-1.3-.1 1-1.1 2.4-1.5 3.6-2.2.1-.1 0-.2-.1-.2-1.5.3-3.1 1.1-4 2.4-.5 0-.9 0-1.4.1.3-.6.7-1.2 1.1-1.7.6-.6 1.3-.9 2-1.4.1-.1 0-.2-.1-.2-1.6.3-2.9 1.8-3.4 3.3-.7.1-1.3.4-1.9.8.2-1.9 2.1-3.4 3.3-4.8.1-.1 0-.3-.2-.2-1.7.8-3.7 3.2-3.5 5.3l-.6.6c-.1.2.1.4.3.2.1-.1.3-.2.4-.3 0 .1 0 .1.1.2.1.2.4.1.3-.1 0-.1 0-.2-.1-.3 1-.6 2.2-.8 3.4-.8.1.1.1.1.2 0 2.8-.1 6 .8 8.4.9 2.4.1 4.9.1 7.2-.8 5.8.4 14.9-2.1 18.5 3.1.1.1.2.2.3.1 0 .7.1 1.3.1 2-1.2 6-3.1 11.5-6.2 17-.1.2.2.4.4.2 2.3-3.3 4.2-7 5.3-10.9-.3 1.7-.8 3.4-1.3 5 0 .1 0 .3.2.3-1.4 3.3-3.1 6.4-5.1 9.6-.1.2.2.4.3.2 4.3-5.5 7-12.4 8.4-19.2.1-.3-.4-.5-.5-.1-.2.7-.3 1.4-.5 2 .3-2.1.3-4.1 0-6.1v-.3c0-.1-.1-.2-.1-.2-.1-.5-.2-1.1-.4-1.6 0-.1-.2-.2-.3-.2-.5-1.9-1.7-3.8-3-5.3 2.5 0 4.8-.3 7.1-.2zm-9.4 3.3c-.6-.8-1.6-1.5-2.5-2-.2-.1-.4.2-.2.3.6.3 1.1.7 1.6 1.2l.5.5c-.5 0-1 0-1.5-.1-.4-.4-.8-.7-1.2-1.1l-.9-.6 3.9-.6c1.4.7 2.3 1.8 3.2 3.1-1-.4-1.9-.6-2.9-.7zm5.2 3.5c-.4-1.2-1.2-2.1-2.2-2.6v-.1c-.4-1.4-1.6-2.6-2.9-3.2.7-.1 1.3-.2 2-.3v.1c1.6 1.8 2.3 3.8 3.1 6.1zm6.8 7.9c.8-1.7 1.2-3.6 1.3-5.4 0-.2-.4-.2-.4 0-.2 1.8-.7 3.6-1.2 5.3 0 .2.2.3.3.1zm19.5-28.4c.1-4.5-.9-9-2.5-13.2-.1-.3-.6-.1-.5.2 1.3 4.3 2 8.6 2.5 13.1 0 .3.5.2.5-.1zm-.4-9c-.1-.3-.5-.2-.5.1 1.1 6.2 1.7 12.3 2.1 18.5 0 .2.3.2.3 0 .4-6.3-.4-12.5-1.9-18.6zm1 18.8c-1 7.9-2.5 15.5-4 23.3 0 .2.3.3.3.1 2.7-7.3 4-15.5 4.2-23.3 0-.3-.4-.4-.5-.1zm-6 20.2c.1.2.3.1.3-.1 0-.9-.2-1.8-.4-2.6-.2-1-.3-2-.5-3-.1-.2-.4-.2-.4.1.1.9.2 1.9.4 2.8.1 1 .2 2 .6 2.8zm.9-1.5c.3-1.5-.1-3.1-.4-4.6-.1-.2-.4-.1-.3.1.3 1.5.2 2.9.4 4.4 0 .3.3.4.3.1zm2.3-15c.2.8.3 1.6.4 2.4.1.6 0 1.3.2 1.9 0 .1.2.1.2 0 .4-1.3-.2-3.2-.6-4.4.1-.2-.2-.2-.2.1zm.5-1.1c.4 1.2.4 2.7 1 3.9.1.1.2.1.2-.1.1-1.3-.6-2.7-1-3.9 0-.2-.3-.1-.2.1zm2.3-7.6c.2-1.6-.3-3.4-.7-4.9-.1-.2-.4-.1-.3.1.4 1.6.4 3.3.8 4.9-.1.1.1 0 .2-.1zm-1.7-1.3c.6 2.9.8 5.8 1.3 8.8 0 .2.3.1.3 0 .1-2.9-.6-6-1.3-8.8-.1-.3-.3-.2-.3 0zm-1.2.8c.7 3.3 1.3 6.8 2.1 10.1.1.2.4.2.4-.1-.4-3.4-1.3-6.8-2.1-10.1-.1-.2-.4-.1-.4.1zm1.9-2.2c-.1-.2-.4-.1-.3.1.5 2.3.7 4.7 1.3 7 0 .2.3.1.3 0 0-2.4-.7-4.8-1.3-7.1zm-2.8 15.8c.1.7.2 1.5.3 2.2.1.6.1 1.3.3 1.9.1.2.3.1.3 0 .1-1.3-.3-2.9-.6-4.2 0-.2-.3-.1-.3.1zm.7-2.4c.1.8.2 1.7.2 2.5 0 .6 0 1.3.1 1.9 0 .2.2.1.3 0 .4-1.4 0-3.2-.3-4.6-.1 0-.3.1-.3.2zm-.6 6.7c-.7 5.8-1.8 11.4-3.1 17.1-.1.3.3.4.4.1 1.9-5.5 2.9-11.3 3.2-17.2-.1-.2-.5-.2-.5 0zm-11.5 1.4c.1-1.4 0-2.9 0-4.4 0-.2-.3-.2-.3 0 0 1.4-.1 2.9 0 4.4 0 .2.3.2.3 0zm-52.1-2.6c-.4-2.2.8-3.9 1.8-5.8.1-.1-.1-.3-.2-.2-1.4 1.7-2.5 3.8-1.8 6-.1.2.2.2.2 0zm-.2 6.8c.1.1.3.1.3-.1-1.1-3.3-1.9-6.6-2.1-10.1 0-.3-.4-.3-.4 0 .1 3.5.8 6.9 2.2 10.2zm3.9 16.9c-2-3.6-4.3-7.9-5.8-12.4 0 0 .1-.1 0-.2-.6-2.3-1.3-4.5-1.8-6.9-.3-1.9-.3-3.9-.1-5.8.2 4.8 1.4 9.4 3.7 13.8.1.2.4 0 .3-.2-2.3-5-3.5-10.2-3.6-15.7.3-1.1.6-2.1 1.1-3.2.1-.2-.2-.4-.3-.2-1.6 2.7-2.2 5.8-2.3 9.1-.3-.6-.6-1.2-.8-1.8-.1-.2-.4 0-.3.2.4.9.8 2 1.2 2.9.2 3.2.9 6.4 2 9.5-.3-.8-.7-1.5-1-2.3-.1-.2-.5-.1-.4.1 1.7 4.4 3.8 8.7 6.8 12.3.1.1.1.1.2 0 .2.3.5.6.7.9.2.5.5.2.4-.1zm59.5-47.5c.1-1.8-.1-3.6-.2-5.4 0-.2-.4-.2-.3 0 .2 1.8.2 3.6.3 5.4 0 .1.2.1.2 0zm-2.4 19.8c.4-4.2.3-8.4.2-12.6 0-.3-.5-.3-.5 0 0 4.2-.1 8.4 0 12.6-.1.2.2.2.3 0zm-1.6 2.1c.4-3.9.2-8.1-.1-12 0-.2-.3-.2-.4 0-.2 3.9-.5 8.1-.1 12 .2.3.6.3.6 0zm-2.3 2.7c.4-3.2.3-6.5.4-9.8 0-.2-.3-.2-.3 0-.2 3.2-.6 6.5-.5 9.8-.1.3.3.3.4 0zm-2.4-.3c.3-1.4.4-2.9.6-4.4 0-.3-.4-.3-.4 0-.2 1.4-.4 2.9-.5 4.4 0 .1.2.2.3 0zm5 7.2c0-.2-.3-.2-.3 0 0 2.5-.6 4.7-1 7.1 0 .1.1.2.2.1 1-2.2 1.1-4.8 1.1-7.2zm-2.9 4.8c-.2 1.3-.5 2.6-.9 3.9-.4 1.1-.9 2.1-1.3 3.3 0 .1.1.2.2.1 1.6-1.9 2.1-4.9 2.4-7.3 0-.3-.3-.2-.4 0zm1.2-1.7c-.1.9-.3 1.9-.5 2.8-.2.7-.4 1.4-.4 2.2 0 .1.2.2.2.1.8-1.4.9-3.5 1-5.1.1-.2-.3-.2-.3 0z" fill="#2c2219" stroke-width="none" opacity="1"></path></g></g></g><g id="svga-group-mustache-single-move" transform="matrix(1,0,0,1,0,0)"><g id="svga-group-mustache-single"></g></g><g id="svga-group-nose-single-move" transform="matrix(1,0,0,1,0,0)"><g id="svga-group-nose-single"><path id="SvgjsPath12627" d="M105.06 106.65c.56.92 2.64 3.61 3.09 4.9.45 1.29-.13 3.22-1.48 3.61s-3.61-.39-3.93-.19c-.32.19-1.87 2.06-2.58 1.93-.71-.13-2.64-2.13-3.03-2.13-.39 0-2.13.45-2.97.45-.84 0-2.9-.71-2.64-2.51.26-1.81 2.45-5.54 2.9-6.06.45-.52 1.48-2.32 1.74-3.42s.58-7.03.71-8.38c.13-1.35 1.35-2.97 2.58-3.09 1.23-.13 3.35.77 3.55 2.9.19 2.13.58 6.38.77 8.12.19 1.74.58 2.71 1.29 3.87z" fill="#d79468" stroke-width="none" opacity="1" transform="translate(0 1)"></path><path id="SvgjsPath12628" d="M97.62 85.76c-.84 3.5-.96 7.24-1.34 10.81-.4 3.83-1.14 7.78-1.09 11.63 0 .31.48.39.55.07.78-3.52.88-7.26 1.24-10.84.39-3.82 1.1-7.79.98-11.63 0-.18-.29-.24-.34-.04z" fill="#a9561f" stroke-width="none" opacity="1" transform="translate(0 1)"></path><path id="SvgjsPath12629" d="M94.46 106.19c-1.03 1.37-1.9 2.87-2.65 4.41-.49 1-1.09 2.17-.77 3.32.53 1.89 2.93 2.49 4.5 1.58.47-.27.26-.99-.27-1-.92-.01-1.98.28-2.72-.5-.88-.94-.01-2.63.38-3.57.58-1.39 1.28-2.72 1.83-4.12.07-.19-.2-.26-.3-.12z" fill="#a9561f" stroke-width="none" opacity="1" transform="translate(0 1)"></path><path id="SvgjsPath12630" d="M94.31 113.98c2.84-.21 3.38 3.37 6.07 3.45 2.31.07 2.5-3.41 4.69-3.3.26.01.34-.35.13-.47-2.49-1.47-2.95 2.86-5.24 2.59-1.36-.16-2.32-2.16-3.54-2.73-.83-.39-1.43-.36-2.23.02-.22.09-.11.46.12.44z" fill="#a9561f" stroke-width="none" opacity="1" transform="translate(0 1)"></path><path id="SvgjsPath12631" d="M104.29 115.6c1.87.42 4.05-.16 4.49-2.24.22-1.04-.13-2.07-.67-2.95-.89-1.44-2.03-2.66-2.87-4.15-.14-.25-.49-.12-.51.14-.11 1.67 1.13 2.83 2.02 4.12.82 1.19 1.53 2.83.15 4-.63.54-1.83.44-2.6.59-.26.04-.25.43-.01.49z" fill="#a9561f" stroke-width="none" opacity="1" transform="translate(0 1)"></path><path id="SvgjsPath12632" d="M102.45 109.98c-.41-.74-1.47-.85-2.06-.26-.05.05-.24.29-.3.36-.07.09-.2.26-.23.29-.07.1-.12.21-.18.32l-.12.28c0-.01-.01.01-.03.05-.06.06-.12.13-.18.2-.18.19-.36.38-.5.6-.42.67-.08 1.42.48 1.84.87.65 2.13.13 2.74-.61.76-.89.96-2.03.38-3.07z" fill="#dfa077" stroke-width="none" opacity="1" transform="translate(0 1)"></path></g></g><g id="svga-group-hair-front"><path id="SvgjsPath12658" d="M146.8 58.2c-.3-1-.6-2.1-1-3.1-.1-5.4-4.8-11-10.5-14 .5-.1.8-.7.4-1.2-2.8-3.6-7.8-4.1-11.7-2.3l-.1-.1c-1.3-2.7-3.3-5-5.4-6.7-.4-.4-1.1.2-.7.6 1.1 1.1 2 2.3 2.7 3.6-.2-.1-.4-.2-.5-.3-4.7-6-14.1-8.7-21.2-7.8-.7.1-.8 1-.2 1.2.8.3 1.7.6 2.6.9h-2.6c-2.7-.4-5.5-.4-8.2-.1-15.2-.1-31.3 7.4-36.2 21.8-3.8 6-5.6 13-4.2 20.1-.3 5 .3 10.1 2 14.4.2 1.7.6 3.5 1.2 5.1 1.1 7.3 3.5 14.5 7.9 20.5.3.5 1 .1.8-.4-1.1-2.4-2.1-4.8-3-7.1.2-.1.4-.2.5-.5.3 1.1.5 2.2.9 3.2.1.2.5.2.5-.1 0-2.4 0-4.8-.1-7.2.1.7.2 1.4.3 2.2.1.4.7.3.7-.1-.2-4.2-.2-8.4 0-12.5.3-2.3.6-4.7 1-7 .2-.3.3-.7.5-1-1 4-1.6 8.2-1.1 12.1 0 .3.5.4.6.1 2-5.8 2.6-12 4.5-17.9.7-2.1 1.4-4.1 2.2-6.1.8-.9 1.7-1.9 2.6-2.8.5-.3.9-.6 1.4-.9-3.9 4.9-6.7 10.5-7.6 15.9-.1.3.4.5.6.2 1.6-2.6 3.1-5.2 4.6-7.7.1.1.3.1.5 0 .5-.4 1.1-.8 1.6-1.1.2.1.4.1.6 0 1.2-.6 2.4-1.3 3.7-1.9-.3.4.2 1 .7.9 3.8-.6 7.4-1.9 11-3.4-1.7 1.2-3.4 2.5-5 3.9-1.3.8-2.5 1.7-3.7 2.8-.5.5.1 1.2.7.9 6.2-3.3 13.1-6.1 19.8-9.3-4.4 2.5-8.9 4.6-13.4 6.9-.4.2-.1.9.3.7 3.8-1.4 7.9-3 11.8-4.8-1.4 1.2-2.9 2.5-4.1 3.8-.6.5-1.3.9-1.9 1.4-.7.6.1 1.7.8 1.4 1.2-.4 2.5-.8 3.8-1.3.1.1.3.1.5.1 5.9-1.1 11.7-5.1 16.3-8.8.8-.6 1.5-1.3 2.2-2-1.4 1.7-3.1 3.2-5.2 4.5-.6.4-.1 1.4.6 1 3.7-1.9 7.2-5 9.7-8.6 1 5.5 3.8 10.7 8.2 13.6 1.9 2.9 3.8 6 5.9 8.9 1.1 2.7 2 5.4 2.7 8.2.1.8.2 1.6.2 2.4.3 6.2-1.6 11.7-4.1 17.3-.3.7.5 1.4 1.1.8 1.3-1.3 2.4-2.8 3.2-4.4.2.1.4 0 .6-.2.2.2.6.2.8-.2.4-.7.8-1.5 1.2-2.2.1-.1.2-.2.2-.3v-.2c2.2-4.9 3.8-10.9 4.5-16.4.2-.8.4-1.5.5-2.2.2 0 .4-.2.4-.4.3-1.1.5-2.2.6-3.4.3-1.6.5-3.2.5-4.8 0 .1.1.2.1.4.1.5.9.4.9-.1.5-6.1-.4-13-3-18.9zM63.9 40.6c-.3.3-.7.5-1 .8 1.5-1.5 3.1-2.8 4.9-4-1.4 1-2.7 2.1-3.9 3.2zm26 24.1c-3.4 1.4-6.8 2.8-10.2 4.3 5.1-2.7 10.1-5.4 15-8.2l-4.8 3.9zm-3.5-5.5c-2.7 1.5-5.4 3.1-8 4.8 3.4-2.7 6.7-5.3 10.7-7.2C91 55.9 93 55 95 54.2c-2.8 1.7-5.7 3.4-8.6 5z" fill="#3b3128" stroke-width="none" opacity="1"></path><path id="SvgjsPath12659" d="M125 48.7c-3.7 12.9-15.8 17.5-26.7 22.8-.3.2-.1.7.2.6 11.4-3.9 24.2-10.5 26.8-23.3.1-.3-.2-.4-.3-.1zm-2.2-.7c-3.1 6.3-9.6 9.1-15.6 12.2-6.7 3.4-13.4 6.7-19.9 10.4-.4.2 0 .7.3.5 8.2-3.7 16.2-7.9 24.1-12.1 4.9-2.6 9.6-5.4 11.5-10.8.2-.3-.2-.5-.4-.2zm-2.6.5c-6.8 4.7-14.2 8.1-22.1 10.6-.3.1-.2.5.1.5 8.1-2 15.5-5.7 22.2-10.6.4-.2.1-.7-.2-.5zm-11.8.5c-14.4.8-28.5 6.7-39 16.6-.2.2.1.5.3.3C81 56.6 93.8 51 108.4 49.2c.3 0 .3-.3 0-.2zm-10.7 8.3c-9.4 2.8-18.5 8-25.7 14.7-.3.2.1.6.4.4 7.9-6.3 16-10.8 25.4-14.5.4-.1.3-.7-.1-.6zm-23.9-1c-7.3 9.2-11.9 21.1-12.2 33 0 .4.5.4.6 0 1.6-12 5.3-22.5 12.2-32.5.1-.4-.4-.8-.6-.5zm-8.2 7.2c-5.5 9.6-7.9 20.9-6.1 31.8.1.3.6.3.6-.1-.8-11.1.9-21.5 5.9-31.5.1-.3-.2-.5-.4-.2zm-5.3 40.4c-2.8-9.9-4.1-19.5-2.6-29.7 0-.3-.4-.4-.4-.1-1.7 10-1.4 20.5 2.3 30 .2.4.8.2.7-.2zm5.4-60.6C54.3 52.4 48.2 68.6 52 82.9c.1.3.5.2.5-.1-2.3-14.9 2.2-29 13.6-39 .3-.3-.1-.7-.4-.5zM62 53.6c-6.4 9.1-9.8 20.3-8.3 31.4 0 .3.5.3.5 0-.5-11.3 1.9-21.8 8.2-31.2.1-.3-.2-.5-.4-.2zm48-19.5c-11.6-4.5-26.1-5.4-37.1 1.2-.2.1 0 .4.2.3 12.2-5.6 24.2-4.5 36.8-1 .3.2.5-.4.1-.5zm8.7 4c-3.7-4.8-9.2-7.8-14.9-9.4-.3-.1-.5.4-.1.5 5.7 2 10.2 5.3 14.6 9.3.3.2.6-.1.4-.4zm3.7 2.3c-.6-1-1.5-1.8-2.3-2.7-.9-.9-1.8-1.8-2.8-2.6-.3-.2-.7.2-.4.4l2.7 2.7c.8.8 1.5 1.8 2.4 2.5.2.3.5 0 .4-.3zm-.9-4.3c-.3-.3-.8.1-.6.5.5.7 1 1.5 1.4 2.3.4.8.6 1.7 1 2.5.2.3.6.2.6-.2-.1-1.8-1.3-3.7-2.4-5.1zm13.4 40.7c-6.4-6.4-9.9-14-10-23.2 0-.2-.3-.2-.3 0-.7 9 2.9 17.9 10 23.5.2.2.5-.1.3-.3zm4 2.5c-.1-.3-.6 0-.4.3 1.5 3.3 2.4 6.6 2.8 10-2.9-9.8-9.2-18.4-11.4-28.5-.1-.4-.6-.2-.6.2.8 4.9 2.7 9.2 4.8 13.6 2.8 5.8 4.9 11.7 7.3 17.6.1 4.2-.5 8.5-1.8 12.9-.1.3.4.5.5.2 3.9-8.5 3-18.2-1.2-26.3zm5.3-10.6c-.1-.3-.5-.2-.5.1.8 4.6 1.2 9.1 1 13.7-.3-2.2-.9-4.4-1.7-6.6-.1-.3-.5-.2-.4.1 1.8 7.2 1.9 13.9.3 21.2-.1.4.5.5.6.2 1.1-3.5 1.6-7.1 1.6-10.7 1.1-5.9.9-12.1-.9-18zm-2.9-18.3c-.2-.4-.8 0-.6.3 4.2 7.9 5.9 16 6.5 24.8 0 .4.7.4.7 0 .4-8.7-2.3-17.4-6.6-25.1zm-3.1-4.3c-2.9-3.1-6.8-6-11.3-4.8-.3.1-.2.5.1.4 4.4-.9 7.6 2.2 10.8 4.7.3.3.7-.1.4-.3zm-3.5 16.5c-.2-.3-.6 0-.4.2 2.9 5 4.6 10.2 5.9 15.8.1.3.6.2.5-.1-.7-5.6-2.9-11-6-15.9zM95.2 37.9c-13 1.2-24.9 8.4-31.2 20-.1.2.1.3.2.1 6.7-11.2 17.9-18.7 31-19.8.2 0 .2-.3 0-.3z" fill="#2c2219" stroke-width="none" opacity="1"></path><path id="SvgjsPath12660" d="M117.8 46.4c-7 4.5-14.3 7.9-22.2 10.5-.2.1-.1.4.1.4 8-2.1 15.5-5.8 22.2-10.6.3-.1.1-.4-.1-.3zm3.5 1.1c-3.1 6.8-12.9 10-19.4 12.4-.2.1-.1.4.1.3 4.6-1.2 8.9-3.1 13-5.5 2.9-1.7 5.8-3.6 6.8-7 0-.2-.4-.4-.5-.2zm-36.8-1.4c-8.9 4.5-15.6 12.6-19 21.9-.1.3.3.4.4.1 3.9-9.3 10.4-16.2 18.8-21.5.4-.3.1-.7-.2-.5zm12.1-6.5c-7.5.1-14.7 2.7-20.7 7.2-.1.1 0 .3.2.2 4.3-2.7 8.8-4.6 13.5-5.8C82.4 44.3 76 49 70.5 54.5c-.1.1.1.3.2.2 5.8-5.6 12.4-9.8 19.6-13.5.1 0 .1-.2.1-.3 2-.5 4.1-.8 6.3-1.1.2.2.2-.2-.1-.2zm8.7 6.6c-7.7.9-15.5 2.2-22 6.6-.2.1 0 .4.2.3 6.8-3.9 14.3-5.2 21.9-6.6.1 0 .1-.3-.1-.3zm28.8 15.5c-2.5-4-4.7-8-6-12.5-.1-.3-.5-.2-.4.1 1.1 4.6 3 9.1 6.1 12.7.1.1.4-.1.3-.3zm2.2-.4c-1.7-1.6-2.7-4.1-3.8-6.1-1.2-2.1-2.4-4.3-3.6-6.4-.1-.2-.3 0-.3.2 1.2 2.7 2.5 5.3 3.9 7.9.9 1.7 1.7 3.8 3.6 4.7.1 0 .3-.2.2-.3zm2.6.3c-1.9-4.1-4.7-7.9-7.5-11.5-.2-.2-.6.1-.4.3 2.7 3.7 5.1 7.5 7.5 11.3.1.4.5.2.4-.1zm-10-16.6c-.2-.2-.4.1-.3.3 5.9 7.1 11.8 13.7 14.9 22.6.1.2.4.1.4-.1-2.3-9.1-8.6-16.5-15-22.8zM144 63.4c-2.1-6-5.9-11.7-10.6-16-.2-.2-.4.1-.2.2 4.3 5 7.5 10.1 10.3 16 .1.3.6.1.5-.2zM96.1 44.8c-6.8.6-13.3 3.7-18.1 8.5-.1.1.1.3.2.2 5.5-4.2 11.2-6.8 17.9-8.2.3-.1.3-.5 0-.5zm-2.7 2.3c-3.4.7-6.7 2.1-9.6 3.8-.2.1 0 .4.2.3 3.2-1.3 6.3-2.5 9.6-3.7.1-.1 0-.5-.2-.4zm18.9 1.4c-5.3 3.2-11.6 2.8-17.1 5.1-.3.1-.1.7.2.6 5.5-2.3 12.2-1.6 17.1-5.3.2-.2 0-.5-.2-.4zM96.3 37c-9.1-2.1-20 2-27.9 6.5-.2.1 0 .5.2.4C77 40 86.7 36 96.1 37.5c.4 0 .6-.4.2-.5zm-5.7-2c-6.1.2-12 1.6-17.2 4.9-.2.1 0 .4.2.3 5.5-2.6 10.9-4.4 17-4.7.3 0 .3-.5 0-.5zm-3.9-1.7c-2.7-.2-5.5-.1-8 1-.3.1-.2.5.1.5 2.6-.6 5.2-1 7.8-.8.4-.1.4-.7.1-.7z" fill="#4a423a" stroke-width="none" opacity="1"></path></g><g id="svga-group-glasses-single-move" transform="matrix(1,0,0,1,0,0)"><g id="svga-group-glasses-single"></g></g></g></g></g><rect id="svga-credit-rect" width="200" height="15" x="0" y="185" fill="#ecf0f1" opacity="0.5" style="display: none;"></rect><text id="svga-credit-text" font-family="Avenir Next, Roboto, Helvetica, Arial, sans-serif" font-size="10px" text-anchor="start" font-weight="400" size="10px" anchor="start" weight="400" fill="#333333" x="33.3125" y="182.609375" style="display: none;"><tspan id="SvgjsTspan12408" dy="13" x="33.3125">Created on AvatarMaker.com</tspan></text></g><defs id="SvgjsDefs12355"></defs></svg>